<svg width="807" height="39" viewBox="0 0 807 39" fill="none" xmlns="http://www.w3.org/2000/svg">
<path fill-rule="evenodd" clip-rule="evenodd" d="M807 0L446.794 5.46582L424.844 39H419.841L413.607 29.4668L407.373 39H402.37L396.136 29.4668L389.902 39H384.899L362.948 5.46582L2.2769e-05 0H807ZM368.292 5.46582H380.419L393.621 25.6173L387.413 35.3056L375.888 17.2984L374.028 14.4307H374.054L368.292 5.46582ZM385.763 5.46582H397.891L402.265 12.1313L400.798 14.4307L398.938 17.2984L396.162 21.6387L393.385 17.2984L391.526 14.4307L385.763 5.46582ZM403.234 5.46582H406.534L404.884 8.02351L403.234 5.46582ZM411.826 5.46582H424.058L418.295 14.4307L416.436 17.2984L413.659 21.6387L410.883 17.2984L409.023 14.4307L407.504 12.0796L411.826 5.46582ZM429.349 5.46582H441.555L435.793 14.4307L433.933 17.2984L422.408 35.3056L416.174 25.5657L429.349 5.46582ZM411.092 25.6173L404.884 35.3056V35.2797L398.65 25.5398L404.858 16.0841L411.092 25.6173Z" fill="url(#paint0_linear_25_38)"/>
<defs>
<linearGradient id="paint0_linear_25_38" x1="818.776" y1="2.01163e-08" x2="-11.0832" y2="-1.43709e-06" gradientUnits="userSpaceOnUse">
<stop stop-color="white"/>
<stop offset="0.495" stop-color="#F2D29E"/>
<stop offset="1" stop-color="white"/>
</linearGradient>
</defs>
</svg>
