
<svg width="419" height="27" viewBox="0 0 419 27" fill="none" xmlns="http://www.w3.org/2000/svg">
<path fill-rule="evenodd" clip-rule="evenodd" d="M178.694 1.40887L194.654 26.1191L198.433 26.1191L203.142 18.818L207.852 26.1191L211.631 26.1191L216.34 18.818L221.049 26.1191L224.828 26.1191L240.807 1.40888L419 1.4089L419 0.000110626L2.2834e-06 7.39961e-05L2.16024e-06 1.40886L178.694 1.40887ZM231.694 9.47884L233.099 7.28256L236.823 1.40888L227.59 1.40888L218.279 15.8105L222.988 23.2699L231.694 9.47884ZM223.606 1.40888L214.355 1.40888L211.73 5.482L212.877 7.28255L214.282 9.47884L216.379 12.8029L218.477 9.47884L219.882 7.28255L223.606 1.40888ZM210.366 1.40888L209.136 1.40888L209.751 2.37555L210.366 1.40888ZM205.11 1.40888L195.936 1.40888L199.66 7.28255L201.065 9.47883L203.162 12.8029L205.26 9.47883L206.664 7.28255L207.772 5.52157L205.11 1.40888ZM191.912 1.40888L182.719 1.40887L186.443 7.28255L187.848 9.47883L196.554 23.2699L201.243 15.85L191.912 1.40888ZM205.081 15.8302L209.791 23.2897L209.791 23.3095L214.48 15.8896L209.771 8.58845L205.081 15.8302Z" fill="url(#paint0_linear_27_26)"/>
<defs>
<linearGradient id="paint0_linear_27_26" x1="419" y1="13.5596" x2="1.09799e-06" y2="13.5596" gradientUnits="userSpaceOnUse">
<stop offset="0.19" stop-color="#E9E8E4"/>
<stop offset="0.48" stop-color="#A59C9C"/>
<stop offset="0.785" stop-color="#E9E8E4"/>
</linearGradient>
</defs>
</svg>
