<?xml version="1.0" encoding="UTF-8"?>
<svg xmlns="http://www.w3.org/2000/svg" version="1.1" viewBox="0 0 35.93 32">
  <defs>
    <style>
      .cls-1 {
        fill: #fff;
      }
    </style>
  </defs>
  <!-- Generator: Adobe Illustrator 28.6.0, SVG Export Plug-In . SVG Version: 1.2.0 Build 709)  -->
  <g>
    <g id="Capa_1">
      <g>
        <path class="cls-1" d="M4.73,11.35l.79-1.25,4.94-7.82,2.67,4.23-5.64,8.73h2.26l2.47-3.89.79-1.25,1.19-1.89,1.19,1.89.79,1.25.65,1.02-1.85,2.87h2.26l.71-1.11.71,1.11h2.29l-1.87-2.9.63-1,.79-1.25,1.19-1.89,1.19,1.89.79,1.25,2.47,3.89h2.29l-5.65-8.76,2.65-4.21,4.94,7.82.79,1.25,2.47,3.89h2.29L26.53.67h-2.14l-2.67,4.14-2.67-4.14h-2.14l-2.67,4.14L11.55.67h-2.14L0,15.24h2.26l2.47-3.89ZM17.95,2.28l2.67,4.23-2.65,4.11-2.67-4.13,2.65-4.21Z"/>
        <path class="cls-1" d="M31.17,20.66l-.79,1.25-4.94,7.82-2.65-4.21,5.65-8.76h-2.29l-2.47,3.89-.79,1.25-1.19,1.89-1.19-1.89-.79-1.25-.63-1,1.87-2.9h-2.29l-.71,1.11-.71-1.11h-2.26l1.85,2.87-.65,1.02-.79,1.25-1.19,1.89-1.19-1.89-.79-1.25-2.47-3.89h-2.26l5.64,8.73-2.67,4.23-4.94-7.82-.79-1.25-2.47-3.89H0l9.4,14.56h2.14l2.67-4.14,2.67,4.14h2.14l2.67-4.14,2.67,4.14h2.14l9.4-14.56h-2.29l-2.47,3.89ZM17.95,29.73l-2.65-4.21,2.67-4.13,2.65,4.11-2.67,4.23Z"/>
      </g>
    </g>
  </g>
</svg>