<svg xmlns="http://www.w3.org/2000/svg" viewBox="0 0 2048 1119" width="2048" height="1119">
  <g fill="#ffffff" fill-rule="evenodd">
    <path d="M 1568 1004 L 1568 1088 L 1627 1088 L 1627 1080 L 1577 1079 L 1578 1049 L 1620 1049 L 1620 1041 L 1577 1040 L 1578 1012 L 1625 1012 L 1625 1004 Z M 1487 1004 L 1487 1088 L 1543 1088 L 1543 1080 L 1496 1079 L 1496 1004 Z M 1381 1004 L 1381 1058 L 1382 1063 L 1383 1068 L 1386 1074 L 1388 1077 L 1390 1079 L 1392 1081 L 1394 1083 L 1396 1084 L 1398 1085 L 1403 1087 L 1406 1088 L 1425 1088 L 1429 1087 L 1434 1085 L 1437 1083 L 1440 1081 L 1442 1079 L 1445 1075 L 1447 1072 L 1447 1069 L 1449 1066 L 1450 1060 L 1450 1004 L 1441 1004 L 1441 1060 L 1439 1063 L 1439 1066 L 1438 1068 L 1437 1070 L 1433 1075 L 1432 1076 L 1430 1077 L 1428 1078 L 1425 1079 L 1422 1080 L 1409 1080 L 1404 1078 L 1402 1076 L 1399 1075 L 1398 1074 L 1397 1073 L 1395 1070 L 1393 1067 L 1393 1064 L 1391 1061 L 1391 1004 Z M 1215 1005 L 1214 1007 L 1211 1013 L 1209 1020 L 1207 1022 L 1207 1024 L 1205 1026 L 1205 1029 L 1203 1031 L 1203 1033 L 1201 1035 L 1200 1037 L 1198 1044 L 1196 1046 L 1196 1048 L 1194 1050 L 1194 1053 L 1192 1055 L 1192 1057 L 1190 1059 L 1190 1062 L 1188 1064 L 1188 1066 L 1187 1068 L 1185 1070 L 1185 1072 L 1183 1074 L 1183 1077 L 1181 1079 L 1181 1081 L 1179 1083 L 1178 1086 L 1178 1088 L 1187 1088 L 1189 1086 L 1190 1083 L 1191 1079 L 1193 1077 L 1195 1070 L 1197 1068 L 1197 1067 L 1244 1067 L 1244 1068 L 1246 1070 L 1248 1077 L 1251 1082 L 1252 1086 L 1254 1088 L 1263 1088 L 1263 1086 L 1262 1083 L 1260 1081 L 1260 1079 L 1257 1075 L 1255 1068 L 1253 1066 L 1253 1064 L 1251 1062 L 1251 1059 L 1249 1057 L 1247 1050 L 1245 1048 L 1245 1046 L 1242 1042 L 1242 1040 L 1240 1038 L 1240 1035 L 1238 1033 L 1236 1026 L 1234 1024 L 1229 1011 L 1227 1009 L 1227 1007 L 1226 1005 Z M 1222 1017 L 1222 1019 L 1226 1028 L 1228 1030 L 1228 1033 L 1231 1039 L 1233 1041 L 1235 1048 L 1237 1050 L 1237 1053 L 1239 1055 L 1238 1058 L 1202 1057 L 1202 1055 L 1204 1050 L 1206 1048 L 1206 1045 L 1208 1043 L 1212 1034 L 1214 1027 L 1219 1019 Z M 1059 1004 L 1059 1088 L 1118 1088 L 1118 1080 L 1068 1079 L 1069 1049 L 1111 1049 L 1111 1041 L 1068 1040 L 1069 1012 L 1117 1012 L 1117 1004 Z M 950 1004 L 950 1088 L 991 1088 L 999 1086 L 1003 1085 L 1005 1083 L 1008 1083 L 1011 1081 L 1014 1079 L 1021 1072 L 1023 1069 L 1025 1066 L 1025 1064 L 1027 1062 L 1028 1057 L 1029 1053 L 1029 1038 L 1027 1034 L 1027 1030 L 1023 1022 L 1020 1018 L 1016 1014 L 1012 1011 L 1004 1007 L 1001 1006 L 998 1005 L 991 1004 Z M 960 1012 L 992 1012 L 995 1013 L 999 1014 L 1004 1017 L 1009 1021 L 1010 1021 L 1011 1022 L 1014 1026 L 1017 1031 L 1018 1033 L 1019 1036 L 1020 1039 L 1020 1053 L 1018 1056 L 1018 1059 L 1015 1064 L 1012 1068 L 1009 1071 L 1005 1074 L 1002 1076 L 997 1078 L 992 1079 L 988 1080 L 959 1079 Z M 836 1005 L 835 1007 L 835 1009 L 833 1011 L 828 1024 L 826 1026 L 824 1033 L 822 1035 L 822 1037 L 820 1039 L 820 1042 L 817 1048 L 815 1050 L 813 1057 L 811 1059 L 811 1061 L 809 1063 L 809 1066 L 807 1068 L 805 1075 L 802 1079 L 802 1081 L 800 1083 L 799 1086 L 799 1088 L 809 1087 L 810 1085 L 811 1083 L 812 1079 L 814 1077 L 814 1074 L 816 1072 L 816 1070 L 817 1068 L 819 1066 L 865 1067 L 866 1069 L 869 1075 L 871 1082 L 873 1084 L 873 1086 L 874 1088 L 884 1088 L 884 1086 L 881 1079 L 879 1077 L 877 1070 L 875 1068 L 872 1062 L 870 1055 L 868 1053 L 866 1046 L 864 1044 L 862 1037 L 859 1034 L 859 1031 L 857 1029 L 855 1022 L 853 1020 L 851 1013 L 849 1011 L 848 1007 L 847 1005 Z M 841 1015 L 843 1017 L 844 1020 L 845 1023 L 848 1028 L 852 1039 L 854 1041 L 854 1044 L 856 1046 L 858 1053 L 860 1055 L 861 1057 L 823 1057 L 823 1054 L 825 1052 L 827 1045 L 829 1043 L 834 1032 L 838 1023 Z M 705 1004 L 705 1088 L 714 1088 L 715 1023 L 721 1029 L 723 1033 L 727 1038 L 729 1039 L 731 1043 L 734 1047 L 742 1057 L 747 1062 L 749 1066 L 755 1072 L 757 1076 L 762 1082 L 766 1087 L 775 1088 L 775 1004 L 766 1004 L 763 1068 L 760 1063 L 758 1062 L 756 1058 L 753 1054 L 750 1050 L 745 1045 L 743 1041 L 737 1035 L 735 1031 L 729 1025 L 726 1020 L 724 1019 L 722 1015 L 719 1011 L 717 1009 L 713 1004 Z M 599 1004 L 599 1057 L 600 1065 L 601 1068 L 602 1071 L 605 1076 L 612 1083 L 615 1085 L 618 1085 L 621 1087 L 624 1088 L 643 1088 L 646 1087 L 649 1086 L 655 1083 L 663 1075 L 664 1073 L 666 1068 L 667 1064 L 668 1060 L 668 1004 L 659 1004 L 659 1056 L 658 1063 L 656 1068 L 654 1071 L 649 1076 L 646 1078 L 643 1078 L 640 1080 L 628 1080 L 625 1079 L 622 1078 L 620 1077 L 618 1076 L 614 1072 L 612 1069 L 612 1067 L 610 1065 L 609 1060 L 608 1056 L 608 1004 Z M 426 1005 L 426 1007 L 424 1009 L 424 1011 L 422 1013 L 422 1016 L 420 1018 L 420 1020 L 417 1024 L 415 1031 L 413 1033 L 413 1035 L 411 1037 L 411 1040 L 409 1042 L 407 1049 L 404 1055 L 402 1057 L 402 1059 L 400 1061 L 400 1064 L 398 1066 L 396 1073 L 394 1075 L 389 1085 L 389 1088 L 399 1087 L 400 1085 L 401 1081 L 403 1079 L 407 1069 L 408 1067 L 454 1066 L 456 1068 L 457 1071 L 458 1075 L 463 1083 L 463 1085 L 464 1087 L 474 1088 L 474 1086 L 472 1081 L 470 1079 L 468 1072 L 466 1070 L 464 1063 L 462 1061 L 462 1059 L 459 1055 L 457 1048 L 455 1046 L 453 1039 L 451 1037 L 446 1024 L 444 1022 L 442 1015 L 440 1013 L 439 1009 L 438 1007 L 437 1005 Z M 430 1017 L 433 1017 L 433 1019 L 435 1021 L 439 1030 L 439 1032 L 443 1041 L 445 1043 L 445 1046 L 447 1048 L 447 1050 L 450 1054 L 449 1058 L 412 1057 L 414 1055 L 414 1052 L 416 1050 L 418 1043 L 419 1041 L 421 1039 L 429 1021 L 429 1019 Z M 321 1004 L 321 1088 L 377 1088 L 377 1080 L 330 1079 L 330 1004 Z M 1689 1003 L 1684 1004 L 1679 1005 L 1674 1007 L 1672 1008 L 1670 1009 L 1667 1011 L 1664 1014 L 1663 1014 L 1661 1016 L 1661 1017 L 1658 1020 L 1656 1023 L 1654 1026 L 1652 1031 L 1651 1035 L 1650 1039 L 1650 1052 L 1651 1056 L 1652 1061 L 1654 1063 L 1654 1065 L 1655 1067 L 1657 1070 L 1660 1074 L 1665 1079 L 1668 1081 L 1671 1083 L 1673 1083 L 1675 1085 L 1678 1085 L 1681 1087 L 1684 1088 L 1704 1088 L 1707 1087 L 1710 1085 L 1713 1085 L 1718 1083 L 1722 1080 L 1726 1077 L 1731 1071 L 1733 1068 L 1734 1066 L 1735 1064 L 1735 1061 L 1737 1058 L 1738 1052 L 1738 1039 L 1737 1033 L 1735 1028 L 1731 1020 L 1729 1018 L 1722 1011 L 1718 1009 L 1715 1007 L 1712 1007 L 1709 1005 L 1705 1004 L 1700 1003 Z M 1685 1012 L 1703 1012 L 1706 1014 L 1709 1014 L 1715 1019 L 1723 1026 L 1725 1029 L 1725 1031 L 1727 1033 L 1728 1037 L 1729 1041 L 1729 1051 L 1727 1058 L 1724 1064 L 1723 1066 L 1722 1067 L 1717 1072 L 1716 1073 L 1713 1075 L 1707 1078 L 1704 1078 L 1701 1080 L 1688 1080 L 1685 1079 L 1681 1078 L 1679 1076 L 1677 1076 L 1674 1074 L 1666 1065 L 1664 1064 L 1664 1062 L 1662 1060 L 1661 1057 L 1660 1054 L 1660 1037 L 1662 1032 L 1663 1030 L 1664 1028 L 1666 1025 L 1672 1019 L 1675 1017 L 1678 1015 L 1680 1014 Z M 1317 1003 L 1312 1004 L 1307 1005 L 1305 1007 L 1302 1007 L 1300 1009 L 1298 1009 L 1295 1011 L 1293 1013 L 1286 1020 L 1284 1023 L 1284 1025 L 1282 1027 L 1281 1030 L 1280 1033 L 1279 1038 L 1279 1053 L 1280 1059 L 1282 1064 L 1283 1066 L 1284 1068 L 1286 1071 L 1289 1075 L 1293 1079 L 1296 1081 L 1299 1083 L 1309 1087 L 1313 1088 L 1332 1088 L 1336 1087 L 1341 1085 L 1343 1084 L 1345 1083 L 1348 1081 L 1351 1079 L 1353 1077 L 1353 1075 L 1347 1070 L 1345 1071 L 1343 1074 L 1340 1076 L 1338 1076 L 1336 1078 L 1332 1079 L 1329 1080 L 1317 1080 L 1310 1078 L 1304 1075 L 1301 1073 L 1300 1072 L 1295 1067 L 1294 1066 L 1294 1065 L 1292 1063 L 1292 1061 L 1290 1059 L 1289 1055 L 1288 1052 L 1288 1039 L 1290 1036 L 1290 1033 L 1291 1031 L 1292 1029 L 1294 1026 L 1302 1018 L 1305 1016 L 1308 1014 L 1311 1014 L 1314 1012 L 1332 1012 L 1337 1014 L 1339 1015 L 1342 1017 L 1346 1021 L 1348 1021 L 1350 1019 L 1351 1019 L 1352 1018 L 1352 1017 L 1353 1015 L 1352 1013 L 1348 1010 L 1343 1007 L 1340 1007 L 1338 1005 L 1333 1004 L 1328 1003 Z M 528 1003 L 519 1005 L 516 1006 L 506 1011 L 501 1017 L 500 1018 L 497 1020 L 493 1028 L 491 1033 L 490 1037 L 490 1055 L 491 1058 L 493 1061 L 493 1064 L 494 1066 L 495 1068 L 499 1074 L 503 1078 L 506 1080 L 510 1083 L 512 1083 L 514 1085 L 524 1088 L 544 1088 L 548 1087 L 551 1085 L 554 1085 L 556 1083 L 558 1083 L 563 1079 L 564 1079 L 565 1046 L 556 1046 L 556 1073 L 554 1075 L 548 1078 L 541 1080 L 528 1080 L 521 1078 L 518 1076 L 515 1075 L 512 1073 L 511 1072 L 506 1067 L 505 1066 L 502 1061 L 500 1056 L 499 1051 L 499 1041 L 500 1035 L 502 1030 L 505 1026 L 513 1019 L 516 1016 L 519 1014 L 522 1014 L 525 1012 L 543 1012 L 546 1013 L 549 1014 L 554 1017 L 558 1021 L 560 1021 L 565 1015 L 561 1011 L 558 1009 L 555 1007 L 550 1005 L 545 1004 L 540 1003 Z M 1937 793 L 1937 930 L 2036 930 L 2036 912 L 1957 911 L 1958 868 L 2025 868 L 2025 852 L 1957 851 L 1958 810 L 2034 810 L 2034 793 Z M 1782 793 L 1782 881 L 1783 889 L 1786 899 L 1788 901 L 1789 905 L 1790 907 L 1794 913 L 1801 920 L 1807 924 L 1809 925 L 1811 926 L 1816 928 L 1823 930 L 1832 931 L 1847 931 L 1857 930 L 1864 928 L 1868 926 L 1873 924 L 1876 922 L 1879 920 L 1881 918 L 1888 910 L 1890 907 L 1894 898 L 1896 891 L 1896 884 L 1898 877 L 1898 793 L 1878 793 L 1878 882 L 1876 886 L 1876 890 L 1872 898 L 1870 901 L 1865 906 L 1862 908 L 1856 911 L 1853 912 L 1848 913 L 1841 914 L 1839 914 L 1832 913 L 1826 912 L 1821 910 L 1818 908 L 1815 906 L 1810 901 L 1808 898 L 1804 890 L 1804 885 L 1802 881 L 1802 793 Z M 1474 793 L 1474 930 L 1494 930 L 1495 830 L 1497 832 L 1503 839 L 1506 844 L 1508 845 L 1510 849 L 1515 855 L 1520 860 L 1523 864 L 1525 868 L 1532 875 L 1534 879 L 1539 885 L 1543 890 L 1551 900 L 1556 906 L 1560 911 L 1562 912 L 1564 916 L 1568 921 L 1573 927 L 1576 930 L 1592 930 L 1592 793 L 1573 793 L 1572 893 L 1569 890 L 1564 884 L 1563 883 L 1563 882 L 1561 879 L 1556 874 L 1552 869 L 1550 865 L 1547 863 L 1546 862 L 1544 858 L 1541 854 L 1535 848 L 1533 844 L 1527 838 L 1524 833 L 1522 832 L 1520 828 L 1518 827 L 1518 826 L 1516 823 L 1515 822 L 1514 822 L 1513 821 L 1510 817 L 1507 813 L 1505 809 L 1498 802 L 1496 798 L 1494 796 L 1491 793 Z M 1372 794 L 1371 796 L 1368 802 L 1364 813 L 1362 815 L 1362 818 L 1360 820 L 1360 822 L 1358 824 L 1355 833 L 1353 835 L 1353 837 L 1351 839 L 1351 842 L 1349 844 L 1349 847 L 1347 849 L 1347 851 L 1345 853 L 1342 859 L 1342 862 L 1340 864 L 1340 866 L 1338 868 L 1336 875 L 1332 884 L 1330 886 L 1325 897 L 1321 908 L 1319 910 L 1319 913 L 1317 915 L 1317 917 L 1314 921 L 1312 926 L 1312 928 L 1311 930 L 1332 930 L 1333 928 L 1333 926 L 1335 924 L 1335 921 L 1337 919 L 1337 916 L 1339 914 L 1344 903 L 1344 901 L 1345 899 L 1346 897 L 1418 896 L 1420 898 L 1420 900 L 1422 902 L 1422 905 L 1424 907 L 1426 914 L 1428 916 L 1431 925 L 1433 927 L 1434 930 L 1455 930 L 1454 927 L 1453 925 L 1451 920 L 1449 918 L 1447 911 L 1445 909 L 1442 903 L 1440 896 L 1438 894 L 1438 891 L 1436 889 L 1436 887 L 1434 885 L 1434 882 L 1432 880 L 1427 870 L 1427 867 L 1425 865 L 1423 858 L 1421 856 L 1417 845 L 1410 832 L 1406 821 L 1404 819 L 1404 816 L 1402 814 L 1402 812 L 1399 808 L 1399 806 L 1397 804 L 1397 801 L 1395 799 L 1395 797 L 1393 795 L 1393 793 Z M 1381 817 L 1384 817 L 1385 819 L 1388 825 L 1392 834 L 1394 841 L 1396 843 L 1396 846 L 1398 848 L 1403 859 L 1405 866 L 1407 868 L 1409 875 L 1410 880 L 1354 878 L 1356 875 L 1356 873 L 1357 871 L 1359 869 L 1362 862 L 1362 860 L 1365 853 L 1367 851 L 1367 848 L 1369 846 L 1369 843 L 1371 841 L 1371 839 L 1374 835 L 1376 828 L 1380 821 L 1380 819 Z M 1190 793 L 1190 930 L 1210 930 L 1211 888 L 1251 887 L 1254 891 L 1256 895 L 1260 899 L 1262 902 L 1263 905 L 1265 906 L 1265 907 L 1271 916 L 1278 926 L 1281 930 L 1303 930 L 1303 928 L 1299 924 L 1298 921 L 1296 920 L 1294 917 L 1293 914 L 1285 904 L 1278 894 L 1277 891 L 1275 890 L 1273 886 L 1271 884 L 1279 881 L 1280 879 L 1282 879 L 1285 877 L 1287 875 L 1288 874 L 1289 872 L 1292 870 L 1294 867 L 1294 865 L 1296 864 L 1298 859 L 1300 852 L 1301 843 L 1301 838 L 1300 829 L 1298 822 L 1294 814 L 1292 811 L 1288 807 L 1284 805 L 1283 803 L 1279 800 L 1277 800 L 1275 798 L 1272 798 L 1270 796 L 1266 796 L 1262 794 L 1253 793 Z M 1211 810 L 1251 810 L 1255 811 L 1260 812 L 1265 814 L 1268 816 L 1272 819 L 1275 822 L 1276 825 L 1278 826 L 1278 829 L 1280 831 L 1281 841 L 1280 850 L 1278 852 L 1278 855 L 1275 859 L 1270 864 L 1265 867 L 1263 867 L 1261 869 L 1256 870 L 1252 871 L 1210 870 Z M 1007 793 L 1007 930 L 1107 930 L 1107 912 L 1027 911 L 1028 868 L 1096 868 L 1096 852 L 1027 851 L 1028 810 L 1104 810 L 1104 793 Z M 846 793 L 846 930 L 909 930 L 917 929 L 924 928 L 928 926 L 932 926 L 942 922 L 949 918 L 953 915 L 958 911 L 960 909 L 962 907 L 965 903 L 967 900 L 969 897 L 969 895 L 971 894 L 971 891 L 973 889 L 976 881 L 977 875 L 978 870 L 978 852 L 976 847 L 976 842 L 974 836 L 973 833 L 971 831 L 971 829 L 967 822 L 964 818 L 955 809 L 952 807 L 951 807 L 950 805 L 948 804 L 945 802 L 943 801 L 939 800 L 937 798 L 934 798 L 931 796 L 927 796 L 923 794 L 913 793 Z M 867 810 L 911 810 L 916 812 L 921 812 L 924 814 L 927 814 L 929 816 L 931 816 L 933 817 L 936 819 L 939 821 L 940 823 L 949 831 L 953 838 L 955 843 L 957 850 L 958 860 L 958 863 L 957 873 L 956 876 L 955 880 L 953 882 L 953 885 L 951 888 L 947 893 L 947 894 L 946 895 L 939 901 L 935 904 L 932 906 L 930 906 L 928 908 L 925 908 L 922 910 L 917 911 L 913 912 L 866 911 Z M 540 793 L 540 930 L 646 930 L 646 904 L 571 903 L 572 872 L 635 872 L 635 848 L 571 847 L 572 819 L 643 819 L 643 793 Z M 422 793 L 422 930 L 522 930 L 522 904 L 454 903 L 454 793 Z M 305 793 L 305 930 L 405 930 L 405 904 L 337 903 L 337 793 Z M 198 793 L 196 796 L 194 803 L 192 805 L 191 807 L 189 814 L 187 816 L 185 823 L 183 825 L 181 832 L 175 843 L 172 852 L 170 854 L 170 857 L 168 859 L 166 866 L 164 868 L 161 874 L 161 877 L 159 879 L 155 888 L 153 895 L 151 897 L 146 908 L 144 915 L 142 917 L 142 920 L 140 922 L 138 927 L 138 930 L 171 929 L 171 927 L 173 924 L 173 921 L 175 919 L 175 916 L 178 912 L 180 905 L 181 903 L 182 901 L 245 901 L 246 903 L 247 905 L 247 907 L 252 916 L 252 919 L 254 921 L 254 924 L 256 926 L 256 928 L 257 930 L 291 930 L 290 927 L 289 925 L 287 920 L 285 918 L 285 915 L 283 913 L 283 910 L 281 908 L 281 906 L 279 904 L 276 895 L 274 893 L 272 886 L 268 877 L 266 875 L 264 868 L 261 864 L 261 862 L 259 860 L 259 857 L 257 855 L 255 848 L 253 846 L 251 839 L 242 819 L 240 817 L 238 810 L 236 808 L 236 805 L 233 799 L 231 797 L 231 795 L 230 793 Z M 214 826 L 217 832 L 217 835 L 219 837 L 222 844 L 224 851 L 226 856 L 228 858 L 228 861 L 230 866 L 232 871 L 234 873 L 233 876 L 193 874 L 195 872 L 195 869 L 197 867 L 199 862 L 199 859 L 201 857 L 201 854 L 203 852 L 208 840 L 212 828 Z M 0 793 L 0 796 L 2 801 L 4 806 L 13 824 L 17 836 L 22 845 L 24 852 L 26 854 L 28 859 L 30 866 L 37 882 L 39 884 L 39 887 L 41 889 L 43 896 L 47 903 L 49 910 L 52 914 L 52 917 L 54 919 L 54 922 L 56 924 L 58 930 L 89 930 L 91 928 L 91 925 L 94 921 L 94 919 L 96 917 L 96 914 L 98 912 L 100 907 L 100 905 L 102 900 L 104 898 L 107 889 L 109 887 L 109 884 L 111 882 L 113 875 L 117 868 L 119 861 L 122 857 L 122 854 L 124 852 L 126 845 L 130 838 L 132 831 L 137 822 L 139 815 L 143 808 L 145 801 L 147 799 L 147 796 L 149 793 L 116 794 L 115 796 L 114 798 L 110 810 L 107 817 L 105 819 L 101 828 L 97 840 L 94 847 L 88 858 L 82 875 L 77 885 L 75 889 L 73 885 L 72 881 L 70 879 L 70 876 L 68 874 L 68 871 L 66 869 L 64 862 L 62 860 L 59 853 L 59 850 L 57 848 L 55 843 L 55 841 L 53 836 L 51 834 L 48 825 L 46 823 L 46 820 L 44 818 L 44 815 L 40 808 L 36 796 L 35 794 Z M 1679 792 L 1675 794 L 1671 794 L 1668 796 L 1665 796 L 1660 798 L 1658 800 L 1656 800 L 1653 802 L 1650 804 L 1646 807 L 1639 813 L 1637 817 L 1635 818 L 1631 824 L 1629 828 L 1626 834 L 1624 839 L 1623 844 L 1622 848 L 1622 874 L 1623 878 L 1624 883 L 1626 886 L 1626 889 L 1631 898 L 1637 907 L 1641 911 L 1648 917 L 1652 920 L 1659 924 L 1669 928 L 1673 928 L 1677 930 L 1687 931 L 1702 931 L 1712 930 L 1716 928 L 1720 928 L 1723 926 L 1726 926 L 1731 924 L 1733 923 L 1737 920 L 1739 920 L 1743 917 L 1746 915 L 1746 861 L 1727 861 L 1727 904 L 1725 906 L 1722 908 L 1717 910 L 1714 911 L 1711 912 L 1704 913 L 1695 914 L 1687 913 L 1680 912 L 1677 910 L 1674 910 L 1672 908 L 1670 908 L 1665 905 L 1662 902 L 1651 892 L 1649 889 L 1645 881 L 1643 876 L 1642 870 L 1641 864 L 1641 859 L 1642 858 L 1642 852 L 1643 847 L 1645 844 L 1645 841 L 1649 833 L 1651 830 L 1653 829 L 1660 821 L 1664 819 L 1667 816 L 1669 815 L 1673 814 L 1675 812 L 1679 811 L 1682 810 L 1690 809 L 1701 809 L 1709 810 L 1712 812 L 1716 812 L 1718 814 L 1720 814 L 1722 816 L 1724 816 L 1731 821 L 1732 822 L 1734 825 L 1736 825 L 1748 812 L 1743 807 L 1736 802 L 1733 800 L 1731 799 L 1727 798 L 1725 796 L 1722 796 L 1719 794 L 1715 794 L 1711 792 Z M 719 790 L 708 791 L 700 792 L 693 794 L 690 796 L 687 796 L 685 798 L 683 798 L 680 800 L 676 803 L 674 805 L 670 809 L 667 813 L 665 818 L 665 821 L 663 824 L 663 842 L 665 845 L 665 849 L 667 852 L 669 855 L 676 862 L 683 866 L 693 870 L 700 872 L 705 872 L 708 874 L 711 875 L 716 875 L 720 877 L 724 877 L 727 879 L 730 879 L 732 881 L 734 881 L 737 883 L 740 886 L 742 889 L 742 894 L 741 896 L 740 898 L 736 902 L 735 903 L 733 904 L 726 906 L 704 906 L 700 904 L 695 904 L 690 901 L 687 901 L 685 899 L 683 899 L 681 897 L 679 897 L 677 895 L 675 895 L 673 893 L 671 892 L 669 894 L 668 898 L 663 910 L 661 912 L 660 914 L 661 918 L 663 919 L 664 919 L 668 922 L 670 922 L 672 924 L 675 924 L 678 926 L 681 926 L 684 928 L 688 928 L 692 930 L 699 930 L 706 932 L 725 932 L 731 931 L 738 930 L 741 929 L 745 928 L 747 926 L 750 926 L 752 924 L 754 924 L 757 922 L 760 920 L 765 915 L 769 909 L 770 907 L 771 905 L 773 900 L 773 879 L 771 874 L 770 872 L 769 870 L 767 867 L 763 863 L 760 861 L 755 858 L 753 857 L 751 856 L 746 854 L 743 853 L 740 852 L 736 852 L 733 850 L 728 850 L 724 848 L 719 848 L 709 845 L 704 843 L 699 840 L 696 837 L 695 835 L 694 833 L 694 830 L 696 825 L 700 821 L 703 819 L 706 818 L 712 816 L 728 816 L 733 817 L 740 819 L 743 821 L 746 821 L 751 823 L 753 825 L 755 825 L 758 827 L 759 825 L 763 817 L 765 812 L 765 809 L 767 807 L 768 804 L 768 802 L 765 800 L 763 799 L 756 796 L 753 796 L 750 794 L 745 793 L 741 792 L 733 791 L 722 790 Z M 879 0 L 875 2 L 871 2 L 866 4 L 862 6 L 858 9 L 856 9 L 850 13 L 848 15 L 843 19 L 835 28 L 833 32 L 830 36 L 829 37 L 826 39 L 824 43 L 820 48 L 814 54 L 809 60 L 807 64 L 805 65 L 800 71 L 796 76 L 793 81 L 790 85 L 789 86 L 788 86 L 787 87 L 784 91 L 784 92 L 779 97 L 774 103 L 772 107 L 770 108 L 766 114 L 762 119 L 757 124 L 751 131 L 749 135 L 742 142 L 738 147 L 736 151 L 729 158 L 726 162 L 726 163 L 721 168 L 716 174 L 714 178 L 712 179 L 708 185 L 703 190 L 699 195 L 699 196 L 693 202 L 691 206 L 684 213 L 681 218 L 678 222 L 671 229 L 669 233 L 663 239 L 658 245 L 656 249 L 654 250 L 650 255 L 648 259 L 647 260 L 645 261 L 641 266 L 641 267 L 635 273 L 633 277 L 626 284 L 623 289 L 620 293 L 614 299 L 611 304 L 605 310 L 600 316 L 598 320 L 596 321 L 593 326 L 587 332 L 583 337 L 581 341 L 580 342 L 574 348 L 572 352 L 571 353 L 568 355 L 566 359 L 562 364 L 556 370 L 553 374 L 551 378 L 550 379 L 547 381 L 542 387 L 540 391 L 538 392 L 535 397 L 529 403 L 526 407 L 526 408 L 521 413 L 517 418 L 512 424 L 508 429 L 505 434 L 504 435 L 501 437 L 499 441 L 494 446 L 492 447 L 488 448 L 486 450 L 484 450 L 482 452 L 480 452 L 478 454 L 471 456 L 469 458 L 467 458 L 465 460 L 463 460 L 459 463 L 457 463 L 455 465 L 453 465 L 451 467 L 448 467 L 446 469 L 444 469 L 442 471 L 440 471 L 438 473 L 436 473 L 434 475 L 422 480 L 412 486 L 410 486 L 408 488 L 406 488 L 404 490 L 400 491 L 399 493 L 397 493 L 395 495 L 393 495 L 391 497 L 389 497 L 384 501 L 382 501 L 377 504 L 372 508 L 370 508 L 367 511 L 364 512 L 355 518 L 342 527 L 338 530 L 333 534 L 327 539 L 321 544 L 319 546 L 318 547 L 317 549 L 316 550 L 314 551 L 312 553 L 311 555 L 308 557 L 306 560 L 303 565 L 303 575 L 310 582 L 313 582 L 316 584 L 350 584 L 363 582 L 408 582 L 440 583 L 471 584 L 484 586 L 501 586 L 510 588 L 523 588 L 536 591 L 546 591 L 552 593 L 561 593 L 566 595 L 573 595 L 578 597 L 584 597 L 589 599 L 595 599 L 599 601 L 605 601 L 609 603 L 613 603 L 620 606 L 625 606 L 629 608 L 633 608 L 637 610 L 641 610 L 644 612 L 648 612 L 659 616 L 663 616 L 672 619 L 675 621 L 679 621 L 682 623 L 685 623 L 688 625 L 692 625 L 695 627 L 698 627 L 701 629 L 705 629 L 708 631 L 711 631 L 720 634 L 723 636 L 726 636 L 729 638 L 732 638 L 735 640 L 739 640 L 742 642 L 745 642 L 748 644 L 751 644 L 754 646 L 757 647 L 760 647 L 763 649 L 766 649 L 769 651 L 773 651 L 776 653 L 783 655 L 786 655 L 793 657 L 796 659 L 800 659 L 803 661 L 806 662 L 810 662 L 813 664 L 817 664 L 821 666 L 825 666 L 829 668 L 833 668 L 837 670 L 842 670 L 846 672 L 851 672 L 855 674 L 861 674 L 865 676 L 869 677 L 876 677 L 881 679 L 889 679 L 895 681 L 905 681 L 912 683 L 928 683 L 944 685 L 971 685 L 986 684 L 1001 683 L 1007 681 L 1014 681 L 1020 679 L 1026 679 L 1031 677 L 1037 677 L 1044 674 L 1049 674 L 1052 672 L 1056 672 L 1059 670 L 1062 670 L 1068 667 L 1070 665 L 1069 660 L 1067 659 L 1065 658 L 1061 658 L 1057 656 L 1053 656 L 1049 654 L 1043 654 L 1039 652 L 1033 652 L 1028 650 L 1022 650 L 1016 648 L 1009 648 L 999 645 L 992 645 L 987 643 L 981 643 L 976 641 L 971 641 L 967 639 L 962 639 L 958 637 L 954 637 L 947 635 L 936 632 L 933 630 L 929 630 L 926 628 L 919 626 L 916 626 L 909 624 L 906 622 L 903 622 L 900 620 L 896 620 L 891 617 L 888 617 L 885 615 L 882 615 L 879 613 L 876 613 L 873 611 L 870 611 L 867 609 L 864 609 L 861 607 L 858 607 L 855 605 L 852 605 L 850 604 L 848 602 L 845 602 L 842 600 L 839 600 L 836 598 L 833 598 L 831 596 L 828 596 L 825 594 L 822 594 L 819 592 L 816 592 L 814 590 L 806 587 L 803 587 L 800 585 L 797 585 L 795 583 L 789 582 L 783 579 L 780 579 L 777 577 L 774 577 L 769 574 L 766 574 L 763 572 L 760 572 L 757 570 L 754 570 L 751 568 L 741 566 L 738 564 L 735 564 L 732 562 L 722 559 L 712 557 L 709 555 L 704 555 L 701 553 L 697 553 L 693 551 L 689 551 L 685 549 L 680 549 L 677 547 L 673 546 L 669 546 L 665 544 L 659 544 L 655 542 L 650 542 L 645 540 L 639 540 L 634 538 L 627 538 L 622 536 L 614 536 L 609 534 L 600 534 L 588 531 L 576 531 L 568 529 L 551 529 L 539 527 L 493 526 L 495 524 L 502 521 L 508 517 L 515 515 L 517 513 L 520 513 L 527 509 L 530 509 L 538 505 L 541 505 L 546 502 L 549 502 L 552 500 L 562 498 L 565 496 L 569 496 L 572 494 L 576 494 L 580 492 L 584 492 L 587 490 L 590 489 L 595 489 L 599 487 L 604 487 L 609 485 L 614 485 L 618 483 L 625 483 L 629 481 L 636 481 L 641 479 L 650 479 L 656 477 L 666 477 L 674 475 L 682 474 L 741 474 L 756 477 L 764 477 L 770 479 L 776 479 L 781 481 L 786 481 L 799 484 L 804 485 L 807 487 L 812 487 L 815 489 L 819 489 L 828 492 L 831 494 L 834 494 L 837 496 L 847 498 L 850 500 L 853 500 L 858 502 L 863 505 L 866 505 L 874 509 L 877 509 L 879 511 L 884 513 L 887 513 L 889 515 L 892 515 L 901 520 L 908 522 L 910 524 L 913 524 L 918 526 L 927 530 L 929 532 L 936 535 L 943 537 L 945 539 L 948 539 L 950 541 L 955 543 L 957 543 L 962 545 L 966 548 L 973 550 L 975 552 L 978 552 L 980 554 L 985 556 L 990 558 L 993 558 L 995 560 L 1002 563 L 1007 565 L 1012 567 L 1020 569 L 1028 573 L 1031 573 L 1036 576 L 1039 577 L 1045 578 L 1048 580 L 1051 580 L 1054 582 L 1064 584 L 1067 586 L 1074 588 L 1078 588 L 1084 591 L 1088 591 L 1091 593 L 1095 593 L 1099 595 L 1103 595 L 1106 597 L 1111 597 L 1114 599 L 1119 599 L 1123 601 L 1128 601 L 1132 603 L 1141 604 L 1145 606 L 1151 606 L 1156 608 L 1162 608 L 1167 610 L 1174 610 L 1179 612 L 1188 612 L 1194 614 L 1204 614 L 1211 616 L 1225 616 L 1234 618 L 1245 619 L 1328 619 L 1340 618 L 1351 616 L 1367 616 L 1375 614 L 1388 614 L 1395 612 L 1406 612 L 1413 610 L 1423 610 L 1428 608 L 1438 608 L 1444 606 L 1453 606 L 1459 604 L 1472 603 L 1478 601 L 1485 601 L 1491 599 L 1499 599 L 1505 597 L 1513 597 L 1519 595 L 1529 595 L 1536 593 L 1549 593 L 1557 591 L 1573 591 L 1584 589 L 1596 588 L 1631 587 L 1667 587 L 1671 586 L 1673 585 L 1675 584 L 1679 580 L 1680 578 L 1680 572 L 1679 571 L 1679 568 L 1677 566 L 1666 555 L 1663 554 L 1660 551 L 1657 549 L 1655 549 L 1652 546 L 1645 542 L 1634 538 L 1632 536 L 1629 536 L 1627 534 L 1624 534 L 1620 531 L 1615 529 L 1610 527 L 1607 527 L 1602 525 L 1597 523 L 1592 521 L 1590 520 L 1588 518 L 1581 516 L 1579 514 L 1577 514 L 1568 508 L 1565 507 L 1562 505 L 1561 504 L 1556 497 L 1551 493 L 1550 492 L 1548 488 L 1541 480 L 1538 478 L 1537 477 L 1535 473 L 1528 465 L 1525 463 L 1524 462 L 1522 458 L 1516 451 L 1514 450 L 1513 449 L 1511 445 L 1505 438 L 1500 432 L 1490 420 L 1483 413 L 1479 407 L 1477 406 L 1475 402 L 1473 400 L 1470 396 L 1467 394 L 1466 393 L 1464 389 L 1460 384 L 1454 378 L 1451 373 L 1447 368 L 1442 362 L 1438 357 L 1432 351 L 1429 346 L 1423 340 L 1421 336 L 1414 329 L 1412 325 L 1409 323 L 1408 322 L 1406 318 L 1403 314 L 1400 312 L 1399 311 L 1394 303 L 1391 299 L 1384 292 L 1382 288 L 1376 281 L 1371 276 L 1367 271 L 1363 265 L 1361 264 L 1359 260 L 1354 254 L 1349 249 L 1349 248 L 1346 244 L 1339 237 L 1337 233 L 1333 228 L 1326 221 L 1322 215 L 1317 209 L 1314 207 L 1313 204 L 1311 202 L 1307 197 L 1303 192 L 1300 190 L 1296 185 L 1292 179 L 1285 172 L 1281 166 L 1278 164 L 1277 163 L 1275 159 L 1268 151 L 1266 149 L 1262 144 L 1255 136 L 1253 134 L 1249 129 L 1242 121 L 1240 119 L 1236 114 L 1232 110 L 1224 103 L 1221 101 L 1218 99 L 1216 99 L 1214 97 L 1211 97 L 1208 95 L 1203 94 L 1199 93 L 1182 93 L 1177 94 L 1171 95 L 1166 97 L 1165 99 L 1163 99 L 1160 101 L 1153 107 L 1142 118 L 1136 125 L 1132 130 L 1127 136 L 1125 140 L 1120 146 L 1118 149 L 1117 152 L 1116 153 L 1115 153 L 1114 154 L 1112 157 L 1108 164 L 1106 167 L 1104 168 L 1102 172 L 1096 179 L 1096 180 L 1091 185 L 1086 192 L 1080 198 L 1076 193 L 1074 189 L 1068 183 L 1066 179 L 1064 178 L 1062 174 L 1059 170 L 1053 164 L 1051 160 L 1047 156 L 1044 151 L 1042 150 L 1040 146 L 1038 145 L 1034 138 L 1029 132 L 1024 127 L 1023 126 L 1021 123 L 1019 119 L 1014 114 L 1009 108 L 1008 107 L 1006 104 L 1006 103 L 1004 100 L 1003 99 L 1002 99 L 1001 98 L 999 94 L 996 90 L 993 86 L 991 84 L 988 80 L 986 79 L 984 75 L 981 71 L 978 67 L 973 62 L 971 58 L 966 53 L 966 52 L 963 48 L 958 43 L 956 39 L 954 38 L 952 34 L 948 29 L 943 24 L 941 20 L 937 16 L 933 13 L 924 7 L 918 4 L 913 2 L 909 2 L 905 0 Z M 892 104 L 895 107 L 897 111 L 899 112 L 899 113 L 902 117 L 903 117 L 904 118 L 906 121 L 910 128 L 915 133 L 917 137 L 922 142 L 925 146 L 927 150 L 932 156 L 936 160 L 940 167 L 942 168 L 942 169 L 945 173 L 946 173 L 947 174 L 949 177 L 953 184 L 955 185 L 957 189 L 962 194 L 964 198 L 968 202 L 971 206 L 973 210 L 978 215 L 981 219 L 983 223 L 985 224 L 987 228 L 992 233 L 996 240 L 998 241 L 1000 245 L 1003 249 L 1005 250 L 1009 257 L 1014 262 L 1016 266 L 1021 271 L 1021 272 L 1026 279 L 1034 288 L 1037 292 L 1039 296 L 1041 297 L 1041 298 L 1044 302 L 1045 302 L 1046 303 L 1048 306 L 1052 313 L 1054 314 L 1056 318 L 1059 322 L 1061 323 L 1065 330 L 1067 331 L 1069 335 L 1072 339 L 1077 344 L 1080 348 L 1082 352 L 1084 353 L 1086 357 L 1090 361 L 1093 365 L 1095 369 L 1097 370 L 1099 374 L 1102 378 L 1104 379 L 1108 386 L 1110 387 L 1112 391 L 1115 395 L 1117 396 L 1121 403 L 1123 405 L 1127 409 L 1130 411 L 1135 414 L 1138 416 L 1141 416 L 1143 418 L 1146 418 L 1151 421 L 1158 423 L 1163 423 L 1168 425 L 1177 426 L 1185 427 L 1210 427 L 1217 426 L 1225 425 L 1232 423 L 1234 422 L 1236 421 L 1240 417 L 1240 409 L 1239 407 L 1238 405 L 1236 402 L 1234 399 L 1222 387 L 1221 386 L 1217 380 L 1215 379 L 1214 378 L 1212 375 L 1208 368 L 1203 363 L 1201 359 L 1199 358 L 1197 354 L 1193 350 L 1191 346 L 1188 342 L 1186 341 L 1184 338 L 1182 334 L 1175 325 L 1165 312 L 1161 308 L 1158 303 L 1150 293 L 1143 286 L 1139 280 L 1137 279 L 1135 275 L 1133 274 L 1135 271 L 1137 270 L 1141 264 L 1148 257 L 1154 250 L 1161 242 L 1165 237 L 1169 232 L 1171 228 L 1173 227 L 1176 223 L 1182 214 L 1186 207 L 1186 205 L 1189 200 L 1191 198 L 1194 203 L 1200 210 L 1206 216 L 1207 217 L 1209 221 L 1214 227 L 1220 233 L 1224 238 L 1228 244 L 1233 250 L 1237 255 L 1243 261 L 1246 266 L 1249 268 L 1250 269 L 1252 273 L 1256 278 L 1262 284 L 1265 289 L 1267 290 L 1269 294 L 1277 302 L 1278 303 L 1280 307 L 1282 308 L 1284 312 L 1291 319 L 1295 324 L 1297 328 L 1300 330 L 1301 331 L 1304 336 L 1308 341 L 1314 347 L 1317 352 L 1323 358 L 1323 359 L 1327 364 L 1333 370 L 1336 375 L 1338 376 L 1340 380 L 1348 388 L 1349 389 L 1351 393 L 1355 398 L 1362 405 L 1365 410 L 1368 414 L 1371 416 L 1372 417 L 1375 422 L 1379 427 L 1385 433 L 1388 438 L 1394 444 L 1397 449 L 1404 456 L 1407 461 L 1409 462 L 1411 466 L 1419 474 L 1420 475 L 1422 479 L 1426 484 L 1433 491 L 1436 495 L 1439 500 L 1446 507 L 1446 508 L 1449 511 L 1445 513 L 1440 514 L 1433 514 L 1427 516 L 1420 516 L 1415 518 L 1408 518 L 1397 521 L 1389 521 L 1382 523 L 1369 523 L 1359 525 L 1335 526 L 1280 526 L 1256 525 L 1246 523 L 1233 523 L 1225 521 L 1215 521 L 1209 520 L 1203 518 L 1195 518 L 1190 516 L 1183 516 L 1178 514 L 1171 514 L 1167 512 L 1161 512 L 1156 510 L 1151 510 L 1147 508 L 1142 508 L 1138 506 L 1133 506 L 1126 503 L 1122 503 L 1118 501 L 1114 501 L 1111 499 L 1107 499 L 1103 497 L 1099 497 L 1096 495 L 1093 495 L 1090 493 L 1086 493 L 1071 488 L 1068 486 L 1065 486 L 1057 482 L 1054 482 L 1051 480 L 1048 480 L 1043 478 L 1038 475 L 1033 473 L 1030 473 L 1028 471 L 1023 469 L 1021 469 L 1016 467 L 1014 465 L 1011 465 L 1009 463 L 1007 463 L 1003 460 L 996 458 L 994 456 L 987 454 L 985 452 L 983 452 L 981 450 L 971 445 L 964 443 L 962 441 L 960 441 L 958 439 L 951 437 L 949 435 L 947 435 L 945 433 L 943 432 L 941 432 L 939 430 L 932 428 L 930 426 L 923 424 L 921 422 L 914 420 L 910 417 L 905 415 L 900 413 L 897 413 L 895 411 L 890 409 L 887 409 L 879 405 L 871 402 L 868 402 L 865 400 L 858 398 L 851 396 L 844 394 L 840 394 L 836 392 L 832 392 L 825 389 L 820 389 L 815 387 L 809 387 L 804 385 L 797 385 L 791 383 L 782 383 L 776 381 L 764 381 L 754 379 L 725 378 L 699 378 L 698 379 L 670 377 L 672 375 L 672 374 L 674 373 L 679 367 L 683 362 L 686 357 L 692 351 L 695 347 L 695 346 L 700 341 L 704 336 L 709 330 L 717 320 L 721 315 L 726 309 L 728 305 L 730 304 L 735 298 L 739 293 L 742 288 L 745 284 L 746 283 L 747 283 L 748 282 L 751 278 L 751 277 L 756 272 L 760 267 L 765 261 L 769 256 L 771 252 L 772 251 L 778 245 L 780 241 L 782 240 L 786 235 L 791 229 L 795 224 L 798 220 L 798 219 L 803 214 L 808 208 L 810 204 L 812 203 L 816 197 L 821 192 L 825 187 L 827 183 L 828 182 L 834 176 L 836 172 L 838 171 L 842 166 L 847 160 L 851 155 L 855 150 L 857 146 L 858 145 L 864 139 L 872 128 L 878 122 L 881 118 L 883 114 L 884 113 L 890 106 Z"/>
  </g>
</svg>