<?xml version="1.0" encoding="UTF-8"?>
<svg xmlns="http://www.w3.org/2000/svg" version="1.1" viewBox="0 0 813.2 148.7">
  <defs>
    <style>
      .cls-1 {
        fill: #cdcfd1;
      }
    </style>
  </defs>
  <!-- Generator: Adobe Illustrator 28.7.5, SVG Export Plug-In . SVG Version: 1.2.0 Build 176)  -->
  <g>
    <g id="Capa_1">
      <g id="Capa_1-2" data-name="Capa_1">
        <path class="cls-1" d="M225,53.6l-18.1-27.4-18.1,27.4M188.9,53.6l-2.9,4.4-9,13.6h-8.3l34.4-51h7.9l34.4,51h-8.4l-9-13.6-2.9-4.4"/>
        <path class="cls-1" d="M197.6,53.6l-18.1-27.4-18.1,27.4M161.5,53.6l-2.9,4.4-9,13.6h-8.3l34.4-51h7.9l34.4,51h-8.4l-9-13.6-2.9-4.4"/>
        <path class="cls-1" d="M170.2,53.6l-18.1-27.4-18.1,27.4M134.1,53.6l-2.9,4.4-9,13.6h-8.3l34.4-51h7.9l34.4,51h-8.4l-9-13.6-2.9-4.4"/>
        <path class="cls-1" d="M188.9,94.9l18.1,27.4,18.1-27.4M225,94.9l2.9-4.4,9-13.6h8.4l-34.4,51h-7.9l-34.4-50.9h8.3l9,13.6,2.9,4.4"/>
        <path class="cls-1" d="M161.5,94.9l18.1,27.4,18.1-27.4M197.6,94.9l2.9-4.4,9-13.6h8.4l-34.4,51h-7.9l-34.4-50.9h8.3l9,13.6,2.9,4.4"/>
        <path class="cls-1" d="M134.1,94.9l18.1,27.4,18.1-27.4M170.2,94.9l2.9-4.4,9-13.6h8.4l-34.4,51h-7.9l-34.4-50.9h8.3l9,13.6,2.9,4.4"/>
        <polygon class="cls-1" points="260.1 59.5 262.6 59.5 262.6 80.8 275.6 80.8 275.6 82.9 260.1 82.9 260.1 59.5"/>
        <polygon class="cls-1" points="300.2 74.6 294.6 62.1 289 74.6 288.1 76.7 285.3 82.9 282.8 82.9 293.4 59.5 295.9 59.5 306.5 82.9 303.9 82.9 301.1 76.7 300.2 74.6"/>
        <path class="cls-1" d="M311.4,72.9v-13.4h2.5v13.3c0,5.5,2.6,8.1,7.1,8.1s7.2-2.5,7.2-8.1v-13.3h2.4v13.4c0,6.7-3.6,10.2-9.6,10.2s-9.6-3.5-9.6-10.2"/>
        <polygon class="cls-1" points="345.8 71.9 341 76.8 341 82.9 338.6 82.9 338.6 59.5 341 59.5 341 73.6 354.8 59.5 357.6 59.5 347.5 70.1 358.3 82.9 355.4 82.9 345.8 71.9"/>
        <polygon class="cls-1" points="381.6 80.8 381.6 82.9 365.1 82.9 365.1 59.5 381.1 59.5 381.1 61.7 367.6 61.7 367.6 70 379.6 70 379.6 72.1 367.6 72.1 367.6 80.8 381.6 80.8"/>
        <polygon class="cls-1" points="409.7 59.5 409.7 82.9 407.7 82.9 392.7 63.9 392.7 82.9 390.2 82.9 390.2 59.5 392.2 59.5 407.3 78.5 407.3 59.5 409.7 59.5"/>
        <rect class="cls-1" x="419.1" y="59.5" width="5.4" height="23.4"/>
        <polygon class="cls-1" points="454.2 59.5 454.2 82.9 449.8 82.9 438.1 68.7 438.1 82.9 432.8 82.9 432.8 59.5 437.3 59.5 448.9 73.7 448.9 59.5 454.2 59.5"/>
        <polygon class="cls-1" points="483.8 82.9 483.8 68.9 476.9 80.4 474.5 80.4 467.6 69.2 467.6 82.9 462.5 82.9 462.5 59.5 467 59.5 475.8 74 484.4 59.5 488.8 59.5 488.9 82.9 483.8 82.9"/>
        <path class="cls-1" d="M495.7,71.2c0-6.9,5.4-12.1,12.8-12.1s12.8,5.1,12.8,12.1-5.4,12.1-12.8,12.1-12.8-5.1-12.8-12.1M515.8,71.2c0-4.4-3.1-7.5-7.3-7.5s-7.3,3-7.3,7.5,3.1,7.5,7.3,7.5,7.3-3,7.3-7.5"/>
        <path class="cls-1" d="M549.6,76.5c0,4-3.2,6.4-9.3,6.4h-12.1v-23.4h11.4c5.8,0,8.8,2.4,8.8,6.1s-1.2,4.1-3.1,5.1c2.6.8,4.3,2.8,4.3,5.8M533.5,63.6v5.5h5.4c2.6,0,4.1-.9,4.1-2.8s-1.4-2.7-4.1-2.7c0,0-5.4,0-5.4,0ZM544.1,75.9c0-2-1.5-2.9-4.3-2.9h-6.3v5.8h6.3c2.8,0,4.3-.9,4.3-2.9"/>
        <rect class="cls-1" x="556.5" y="59.5" width="5.4" height="23.4"/>
        <polygon class="cls-1" points="570.2 59.5 575.6 59.5 575.6 78.5 587.3 78.5 587.3 82.9 570.2 82.9 570.2 59.5"/>
        <rect class="cls-1" x="593.1" y="59.5" width="5.4" height="23.4"/>
        <polygon class="cls-1" points="616.8 64.8 613.1 73.8 611.4 77.9 609.3 82.9 603.8 82.9 614.2 59.5 619.5 59.5 630 82.9 624.3 82.9 622.2 77.9 616.8 64.8"/>
        <polygon class="cls-1" points="686.2 64.8 682.5 73.8 680.8 77.9 678.7 82.9 673.2 82.9 683.6 59.5 688.9 59.5 699.4 82.9 693.7 82.9 691.6 77.9 686.2 64.8"/>
        <path class="cls-1" d="M650.1,82.9l-4.5-6.5h-5v6.5h-5.4v-23.4h10.1c6.2,0,10.2,3.2,10.2,8.5s-1.8,6.1-4.8,7.4l5.2,7.5h-5.8,0ZM645,63.9h-4.4v8.1h4.4c3.3,0,5-1.5,5-4.1s-1.7-4.1-5-4.1"/>
        <rect class="cls-1" x="662.5" y="59.5" width="5.4" height="23.4"/>
      </g>
    </g>
  </g>
</svg>