<?xml version="1.0" encoding="UTF-8"?>
<svg xmlns="http://www.w3.org/2000/svg" version="1.1" viewBox="0 0 813.25 148.74">
  <defs>
    <style>
      .cls-1 {
        fill: #bb8d43;
      }

      .cls-2 {
        fill: #cdcfd1;
      }
    </style>
  </defs>
  <!-- Generator: Adobe Illustrator 28.6.0, SVG Export Plug-In . SVG Version: 1.2.0 Build 709)  -->
  <g>
    <g id="Capa_1">
      <g>
        <path class="cls-1" d="M385.16,98.95c0-2.84,2.17-4.89,5.1-4.89,1.55,0,2.88.56,3.77,1.59l-1.14,1.07c-.69-.75-1.55-1.11-2.54-1.11-1.97,0-3.4,1.39-3.4,3.34s1.43,3.34,3.4,3.34c.99,0,1.85-.37,2.54-1.13l1.14,1.09c-.88,1.03-2.22,1.59-3.78,1.59-2.91,0-5.08-2.05-5.08-4.89Z"/>
        <path class="cls-1" d="M394.88,98.95c0-2.81,2.17-4.89,5.12-4.89s5.13,2.07,5.13,4.89-2.18,4.89-5.13,4.89-5.12-2.08-5.12-4.89ZM403.35,98.95c0-1.94-1.43-3.34-3.34-3.34s-3.34,1.4-3.34,3.34,1.43,3.34,3.34,3.34,3.34-1.4,3.34-3.34Z"/>
        <path class="cls-1" d="M415.29,94.19v9.52h-1.46l-5.25-6.44v6.44h-1.75v-9.52h1.45l5.25,6.44v-6.44h1.75Z"/>
        <path class="cls-1" d="M416.88,102.71l.61-1.37c.76.61,1.97,1.05,3.14,1.05,1.48,0,2.11-.53,2.11-1.24,0-2.05-5.66-.71-5.66-4.24,0-1.54,1.22-2.84,3.83-2.84,1.14,0,2.34.3,3.17.84l-.56,1.37c-.86-.5-1.79-.75-2.62-.75-1.47,0-2.07.57-2.07,1.29,0,2.03,5.64.71,5.64,4.2,0,1.52-1.24,2.83-3.85,2.83-1.48,0-2.96-.46-3.75-1.14Z"/>
        <path class="cls-1" d="M428,95.69h-3.15v-1.5h8.08v1.5h-3.15v8.02h-1.77v-8.02Z"/>
        <path class="cls-1" d="M440.31,103.71l-1.94-2.79c-.12.01-.25.01-.37.01h-2.15v2.77h-1.77v-9.52h3.92c2.5,0,4.05,1.28,4.05,3.39,0,1.44-.73,2.5-2.03,3l2.19,3.13h-1.9ZM437.92,95.69h-2.07v3.79h2.07c1.55,0,2.35-.71,2.35-1.9s-.8-1.89-2.35-1.89Z"/>
        <path class="cls-1" d="M443.77,99.57v-5.37h1.77v5.3c0,1.96.88,2.8,2.42,2.8s2.41-.84,2.41-2.8v-5.3h1.74v5.37c0,2.77-1.56,4.28-4.16,4.28s-4.17-1.51-4.17-4.28Z"/>
        <path class="cls-1" d="M458.52,100.35v3.36h-1.77v-3.33l-3.74-6.19h1.89l2.79,4.64,2.81-4.64h1.74l-3.73,6.16Z"/>
        <path class="cls-1" d="M470.37,102.23v1.48h-7.14v-9.52h6.95v1.48h-5.18v2.47h4.59v1.45h-4.59v2.62h5.37Z"/>
        <path class="cls-1" d="M480.63,94.19v9.52h-1.46l-5.25-6.44v6.44h-1.75v-9.52h1.45l5.25,6.44v-6.44h1.75Z"/>
        <path class="cls-1" d="M483.02,94.19h4.16c3.09,0,5.19,1.9,5.19,4.76s-2.11,4.76-5.19,4.76h-4.16v-9.52ZM487.1,102.22c2.12,0,3.49-1.29,3.49-3.26s-1.37-3.26-3.49-3.26h-2.31v6.53h2.31Z"/>
        <path class="cls-1" d="M493.4,98.95c0-2.81,2.17-4.89,5.12-4.89s5.13,2.07,5.13,4.89-2.18,4.89-5.13,4.89-5.12-2.08-5.12-4.89ZM501.87,98.95c0-1.94-1.43-3.34-3.34-3.34s-3.34,1.4-3.34,3.34,1.43,3.34,3.34,3.34,3.34-1.4,3.34-3.34Z"/>
        <path class="cls-1" d="M508.27,98.95c0-2.84,2.17-4.89,5.1-4.89,1.55,0,2.88.56,3.77,1.59l-1.14,1.07c-.69-.75-1.55-1.11-2.54-1.11-1.97,0-3.4,1.39-3.4,3.34s1.43,3.34,3.4,3.34c.99,0,1.85-.37,2.54-1.13l1.14,1.09c-.88,1.03-2.22,1.59-3.78,1.59-2.91,0-5.08-2.05-5.08-4.89Z"/>
        <path class="cls-1" d="M517.98,98.95c0-2.81,2.17-4.89,5.12-4.89s5.13,2.07,5.13,4.89-2.18,4.89-5.13,4.89-5.12-2.08-5.12-4.89ZM526.45,98.95c0-1.94-1.43-3.34-3.34-3.34s-3.34,1.4-3.34,3.34,1.43,3.34,3.34,3.34,3.34-1.4,3.34-3.34Z"/>
        <path class="cls-1" d="M538.4,94.19v9.52h-1.46l-5.25-6.44v6.44h-1.75v-9.52h1.45l5.25,6.44v-6.44h1.75Z"/>
        <path class="cls-1" d="M542.55,95.68v2.9h4.6v1.5h-4.6v3.64h-1.77v-9.52h6.95v1.48h-5.18Z"/>
        <path class="cls-1" d="M549.28,94.19h1.77v9.52h-1.77v-9.52Z"/>
        <path class="cls-1" d="M559.62,101.51h-4.76l-.94,2.2h-1.82l4.28-9.52h1.74l4.3,9.52h-1.85l-.95-2.2ZM559.04,100.12l-1.79-4.16-1.78,4.16h3.58Z"/>
        <path class="cls-1" d="M571.92,94.19v9.52h-1.46l-5.25-6.44v6.44h-1.75v-9.52h1.45l5.25,6.44v-6.44h1.75Z"/>
        <path class="cls-1" d="M581.7,102.22v1.5h-8.12v-1.18l5.6-6.84h-5.51v-1.5h7.84v1.18l-5.6,6.84h5.78Z"/>
        <path class="cls-1" d="M589.33,101.51h-4.76l-.94,2.2h-1.82l4.28-9.52h1.74l4.3,9.52h-1.85l-.95-2.2ZM588.74,100.12l-1.79-4.16-1.78,4.16h3.58Z"/>
      </g>
      <path class="cls-2" d="M225.01,53.62l-18.06-27.37-18.06,27.37M188.89,53.62l-2.9,4.37-9.03,13.61h-8.28l34.4-50.95h7.85l34.4,50.95h-8.38l-9.03-13.61-2.9-4.37"/>
      <path class="cls-2" d="M197.6,53.62l-18.06-27.37-18.06,27.37M161.48,53.62l-2.9,4.37-9.03,13.61h-8.28l34.4-50.95h7.85l34.4,50.95h-8.38l-9.03-13.61-2.9-4.37"/>
      <path class="cls-2" d="M170.2,53.62l-18.06-27.37-18.06,27.37M134.08,53.62l-2.9,4.37-9.03,13.61h-8.28l34.4-50.95h7.85l34.4,50.95h-8.38l-9.03-13.61-2.9-4.37"/>
      <path class="cls-2" d="M188.89,94.92l18.06,27.37,18.06-27.37M225,94.92l2.9-4.37,9.03-13.61h8.38l-34.4,50.95h-7.85l-34.4-50.95h8.28l9.03,13.61,2.9,4.37"/>
      <path class="cls-2" d="M161.48,94.92l18.06,27.37,18.06-27.37M197.6,94.92l2.9-4.37,9.03-13.61h8.38l-34.4,50.95h-7.85l-34.4-50.95h8.28l9.03,13.61,2.9,4.37"/>
      <path class="cls-2" d="M134.08,94.92l18.06,27.37,18.06-27.37M170.2,94.92l2.9-4.37,9.03-13.61h8.38l-34.4,50.95h-7.85l-34.4-50.95h8.28l9.03,13.61,2.9,4.37"/>
      <polygon class="cls-2" points="260.09 59.53 262.56 59.53 262.56 80.75 275.64 80.75 275.64 82.89 260.09 82.89 260.09 59.53"/>
      <polygon class="cls-2" points="300.24 74.64 294.63 62.1 289.03 74.64 288.12 76.65 285.32 82.89 282.75 82.89 293.43 59.53 295.87 59.53 306.55 82.89 303.94 82.89 301.14 76.65 300.24 74.64"/>
      <path class="cls-2" d="M311.39,72.91v-13.38h2.47v13.28c0,5.54,2.6,8.08,7.14,8.08s7.18-2.54,7.18-8.08v-13.28h2.4v13.38c0,6.71-3.6,10.18-9.58,10.18s-9.61-3.47-9.61-10.18"/>
      <polygon class="cls-2" points="345.82 71.91 341.05 76.75 341.05 82.89 338.58 82.89 338.58 59.53 341.05 59.53 341.05 73.64 354.76 59.53 357.6 59.53 347.49 70.11 358.3 82.89 355.36 82.89 345.82 71.91"/>
      <polygon class="cls-2" points="381.61 80.75 381.61 82.89 365.09 82.89 365.09 59.53 381.11 59.53 381.11 61.66 367.56 61.66 367.56 69.97 379.64 69.97 379.64 72.07 367.56 72.07 367.56 80.75 381.61 80.75"/>
      <polygon class="cls-2" points="409.72 59.53 409.72 82.89 407.68 82.89 392.66 63.93 392.66 82.89 390.2 82.89 390.2 59.53 392.23 59.53 407.28 78.48 407.28 59.53 409.72 59.53"/>
      <rect class="cls-2" x="419.08" y="59.53" width="5.41" height="23.36"/>
      <polygon class="cls-2" points="454.23 59.53 454.23 82.89 449.79 82.89 438.14 68.7 438.14 82.89 432.8 82.89 432.8 59.53 437.28 59.53 448.89 73.71 448.89 59.53 454.23 59.53"/>
      <polygon class="cls-2" points="483.81 82.89 483.78 68.87 476.9 80.42 474.47 80.42 467.63 69.17 467.63 82.89 462.55 82.89 462.55 59.53 467.02 59.53 475.77 74.04 484.38 59.53 488.82 59.53 488.88 82.89 483.81 82.89"/>
      <path class="cls-2" d="M495.74,71.21c0-6.94,5.41-12.08,12.78-12.08s12.78,5.11,12.78,12.08-5.44,12.08-12.78,12.08-12.78-5.14-12.78-12.08M515.83,71.21c0-4.44-3.14-7.48-7.31-7.48s-7.31,3.04-7.31,7.48,3.14,7.48,7.31,7.48,7.31-3.04,7.31-7.48"/>
      <path class="cls-2" d="M549.58,76.51c0,4.04-3.2,6.37-9.34,6.37h-12.08v-23.36h11.41c5.84,0,8.84,2.44,8.84,6.07,0,2.34-1.2,4.14-3.1,5.14,2.6.83,4.27,2.84,4.27,5.77M533.53,63.6v5.51h5.37c2.64,0,4.07-.93,4.07-2.77s-1.44-2.74-4.07-2.74h-5.37ZM544.14,75.95c0-1.97-1.5-2.9-4.3-2.9h-6.31v5.77h6.31c2.8,0,4.3-.87,4.3-2.87"/>
      <rect class="cls-2" x="556.47" y="59.53" width="5.41" height="23.36"/>
      <polygon class="cls-2" points="570.2 59.53 575.6 59.53 575.6 78.48 587.32 78.48 587.32 82.89 570.2 82.89 570.2 59.53"/>
      <rect class="cls-2" x="593.14" y="59.53" width="5.41" height="23.36"/>
      <polygon class="cls-2" points="616.84 64.83 613.14 73.78 611.4 77.88 609.33 82.89 603.79 82.89 614.21 59.53 619.55 59.53 629.99 82.89 624.32 82.89 622.25 77.88 616.84 64.83"/>
      <polygon class="cls-2" points="686.23 64.83 682.53 73.78 680.79 77.88 678.72 82.89 673.18 82.89 683.59 59.53 688.93 59.53 699.38 82.89 693.71 82.89 691.64 77.88 686.23 64.83"/>
      <path class="cls-2" d="M650.1,82.89l-4.51-6.51h-4.97v6.51h-5.41v-23.36h10.11c6.24,0,10.15,3.24,10.15,8.48,0,3.5-1.77,6.07-4.81,7.38l5.24,7.51h-5.81ZM645.02,63.93h-4.41v8.14h4.41c3.3,0,4.97-1.53,4.97-4.07s-1.67-4.07-4.97-4.07"/>
      <rect class="cls-2" x="662.52" y="59.53" width="5.41" height="23.36"/>
    </g>
  </g>
</svg>