<?xml version="1.0" encoding="UTF-8"?>
<svg xmlns="http://www.w3.org/2000/svg" version="1.1" viewBox="0 0 31.88 32">
  <defs>
    <style>
      .cls-1 {
        fill: #263954;
      }
    </style>
  </defs>
  <!-- Generator: Adobe Illustrator 28.6.0, SVG Export Plug-In . SVG Version: 1.2.0 Build 709)  -->
  <g>
    <g id="Capa_1">
      <g>
        <path class="cls-1" d="M4.22,12.25l.71-1.11,4.4-6.97,2.38,3.77-5.03,7.78h2.02l2.2-3.47.71-1.11,1.06-1.68,1.06,1.68.71,1.11.58.91-1.65,2.56h2.02l.63-.99.63.99h2.04l-1.67-2.58.56-.89.71-1.11,1.06-1.68,1.06,1.68.71,1.11,2.2,3.47h2.04l-5.04-7.8,2.37-3.75,4.4,6.97.71,1.11,2.2,3.47h2.04L23.65,2.73h-1.91l-2.38,3.69-2.38-3.69h-1.91l-2.38,3.69-2.38-3.69h-1.91L0,15.72h2.02l2.2-3.47ZM16,4.16l2.38,3.77-2.37,3.66-2.38-3.69,2.37-3.75Z"/>
        <path class="cls-1" d="M27.78,20.55l-.71,1.11-4.4,6.97-2.37-3.75,5.04-7.8h-2.04l-2.2,3.47-.71,1.11-1.06,1.68-1.06-1.68-.71-1.11-.56-.89,1.67-2.58h-2.04l-.63.99-.63-.99h-2.02l1.65,2.56-.58.91-.71,1.11-1.06,1.68-1.06-1.68-.71-1.11-2.2-3.47h-2.02l5.03,7.78-2.38,3.77-4.4-6.97-.71-1.11-2.2-3.47H0l8.38,12.98h1.91l2.38-3.69,2.38,3.69h1.91l2.38-3.69,2.38,3.69h1.91l8.38-12.98h-2.04l-2.2,3.47ZM16,28.63l-2.37-3.75,2.38-3.69,2.37,3.66-2.38,3.77Z"/>
      </g>
    </g>
  </g>
</svg>