<?xml version="1.0" encoding="UTF-8"?>
<svg xmlns="http://www.w3.org/2000/svg" version="1.1" viewBox="0 0 200 200">
  <defs>
    <style>
      .cls-1 {
        fill: #bb8d43;
      }

      .cls-2 {
        fill: #cdcfd1;
      }
    </style>
  </defs>
  <!-- Generator: Adobe Illustrator 28.6.0, SVG Export Plug-In . SVG Version: 1.2.0 Build 709)  -->
  <g>
    <g id="Capa_1">
      <g>
        <path class="cls-2" d="M30,56.3l4.22-6.35L60.48,10.15l14.2,21.51-30,44.43h12.04l13.13-19.79,4.22-6.35,6.34-9.61,6.34,9.61,4.22,6.35,3.44,5.18-9.87,14.61h12.04l3.76-5.67,3.76,5.67h12.19l-9.95-14.73,3.36-5.06,4.22-6.35,6.34-9.6,6.34,9.6,4.22,6.35,13.13,19.79h12.19l-30.07-44.54,14.12-21.4,26.26,39.8,4.22,6.35,13.13,19.79h12.19L145.97,2h-11.41l-14.22,21.07-14.22-21.07h-11.41l-14.22,21.06-14.22-21.06h-11.41L4.83,76.09h12.04l13.13-19.79ZM100.33,10.15l14.2,21.52-14.12,20.91-14.2-21.03,14.12-21.39Z"/>
        <path class="cls-2" d="M170.67,103.66l-4.22,6.35-26.26,39.8-14.12-21.4,30.07-44.54h-12.19l-13.13,19.79-4.22,6.35-6.34,9.6-6.34-9.6-4.22-6.35-3.36-5.06,9.95-14.73h-12.19l-3.76,5.67-3.76-5.67h-12.04l9.87,14.61-3.44,5.18-4.22,6.35-6.34,9.61-6.34-9.61-4.22-6.35-13.13-19.79h-12.04l30,44.43-14.2,21.51-26.26-39.8-4.22-6.35-13.13-19.79H4.83l50.03,74.09h11.41l14.22-21.06,14.22,21.06h11.41l14.22-21.07,14.22,21.07h11.41l50.03-74.09h-12.19l-13.13,19.79ZM100.33,149.81l-14.12-21.39,14.2-21.03,14.12,20.91-14.2,21.52Z"/>
      </g>
      <g>
        <rect class="cls-1" x="6" y="181.19" width="1.83" height="17.3"/>
        <polygon class="cls-1" points="27.11 195.24 15.97 181.19 14.46 181.19 14.46 198.5 16.29 198.5 16.29 184.46 27.41 198.5 28.92 198.5 28.92 181.19 27.11 181.19 27.11 195.24"/>
        <polygon class="cls-1" points="44.57 194.02 37.06 181.19 35.55 181.19 35.55 198.5 37.3 198.5 37.3 184.73 44.1 196.3 44.97 196.3 51.77 184.66 51.77 198.5 53.52 198.5 53.52 181.19 52.01 181.19 44.57 194.02"/>
        <path class="cls-1" d="M67.72,181.05c-5.24,0-9.1,3.76-9.1,8.8s3.86,8.8,9.1,8.8,9.07-3.73,9.07-8.8-3.88-8.8-9.07-8.8ZM67.72,197.02c-4.18,0-7.29-3.04-7.29-7.17s3.11-7.17,7.29-7.17,7.24,3.04,7.24,7.17-3.09,7.17-7.24,7.17Z"/>
        <path class="cls-1" d="M92.79,189.58c1.58-.64,2.65-1.95,2.65-3.93,0-2.82-2.23-4.45-6.08-4.45h-7.47v17.3h7.96c4.33,0,6.5-1.68,6.5-4.62,0-2.35-1.34-3.81-3.56-4.3ZM83.71,182.7h5.51c2.77,0,4.38,1.06,4.38,3.14s-1.61,3.14-4.38,3.14h-5.51v-6.28ZM89.82,196.99h-6.11v-6.5h6.11c3.04,0,4.7.99,4.7,3.24s-1.66,3.26-4.7,3.26Z"/>
        <rect class="cls-1" x="101.52" y="181.19" width="1.83" height="17.3"/>
        <polygon class="cls-1" points="111.8 181.19 109.97 181.19 109.97 198.5 121.49 198.5 121.49 196.92 111.8 196.92 111.8 181.19"/>
        <rect class="cls-1" x="125.53" y="181.19" width="1.83" height="17.3"/>
        <polygon class="cls-1" points="139.12 181.19 131.21 198.5 133.12 198.5 135.19 193.88 135.86 192.39 140.01 183.1 144.17 192.39 144.83 193.88 146.91 198.5 148.84 198.5 140.93 181.19 139.12 181.19"/>
        <polygon class="cls-1" points="186.96 181.19 185.15 181.19 177.24 198.5 179.14 198.5 181.22 193.88 181.89 192.39 186.04 183.1 190.19 192.39 190.86 193.88 192.94 198.5 194.87 198.5 186.96 181.19"/>
        <path class="cls-1" d="M166.25,187.13c0-3.71-2.67-5.93-7.07-5.93h-6.48v17.3h1.83v-5.49h4.65c.5,0,.94-.02,1.38-.07l3.96,5.56h2l-4.23-5.93c2.52-.82,3.96-2.72,3.96-5.44ZM159.13,191.45h-4.6v-8.68h4.6c3.46,0,5.29,1.58,5.29,4.35s-1.83,4.33-5.29,4.33Z"/>
        <rect class="cls-1" x="171.57" y="181.19" width="1.83" height="17.3"/>
      </g>
    </g>
  </g>
</svg>