<svg width="807" height="40" viewBox="0 0 807 40" fill="none" xmlns="http://www.w3.org/2000/svg">
<path fill-rule="evenodd" clip-rule="evenodd" d="M807 40L446.794 34.394L424.844 3.39516e-05L419.841 3.35142e-05L413.607 9.77767L407.373 3.24242e-05L402.37 3.19868e-05L396.136 9.77767L389.902 3.08968e-05L384.899 3.04594e-05L362.948 34.394L2.2769e-05 39.9999L807 40ZM368.292 34.394L380.419 34.394L393.621 13.7258L387.413 3.7892L375.888 22.2581L374.028 25.1993L374.054 25.1993L368.292 34.394ZM385.763 34.394L397.891 34.394L402.265 27.5576L400.798 25.1993L398.938 22.2581L396.162 17.8065L393.385 22.2581L391.526 25.1993L385.763 34.394ZM403.234 34.394L406.534 34.394L404.884 31.7707L403.234 34.394ZM411.826 34.394L424.058 34.394L418.295 25.1993L416.436 22.2581L413.659 17.8065L410.883 22.2581L409.023 25.1993L407.504 27.6106L411.826 34.394ZM429.349 34.394L441.555 34.394L435.793 25.1993L433.933 22.2581L422.408 3.7892L416.174 13.7788L429.349 34.394ZM411.092 13.7258L404.884 3.7892L404.884 3.8157L398.65 13.8053L404.858 23.5035L411.092 13.7258Z" fill="url(#paint0_linear_25_39)"/>
<defs>
<linearGradient id="paint0_linear_25_39" x1="818.776" y1="40" x2="-11.0832" y2="39.9999" gradientUnits="userSpaceOnUse">
<stop stop-color="white"/>
<stop offset="0.495" stop-color="#F2D29E"/>
<stop offset="1" stop-color="white"/>
</linearGradient>
</defs>
</svg>
