
<svg width="419" height="27" viewBox="0 0 419 27" fill="none" xmlns="http://www.w3.org/2000/svg">
<path fill-rule="evenodd" clip-rule="evenodd" d="M240.306 24.7102L224.346 0H220.567L215.858 7.30115L211.148 0H207.369L202.66 7.30115L197.951 0H194.172L178.193 24.7102H0V26.119H419V24.7102H240.306ZM187.306 16.6403L185.901 18.8366L182.177 24.7102H191.41L200.721 10.3087L196.012 2.84923L187.306 16.6403ZM195.394 24.7102H204.645L207.27 20.6371L206.123 18.8366L204.718 16.6403L202.621 13.3162L200.523 16.6403L199.118 18.8366L195.394 24.7102ZM208.634 24.7102H209.864L209.249 23.7436L208.634 24.7102ZM213.89 24.7102H223.064L219.34 18.8366L217.935 16.6403L215.838 13.3162L213.74 16.6403L212.336 18.8366L211.228 20.5975L213.89 24.7102ZM227.088 24.7102H236.281L232.557 18.8366L231.152 16.6403L222.446 2.84923L217.757 10.2691L227.088 24.7102ZM213.919 10.2889L209.209 2.82944V2.80966L204.52 10.2295L209.229 17.5307L213.919 10.2889Z" fill="url(#paint0_linear_27_25)"/>
<defs>
<linearGradient id="paint0_linear_27_25" x1="0" y1="12.5595" x2="419" y2="12.5595" gradientUnits="userSpaceOnUse">
<stop offset="0.085" stop-color="#E9E8E4"/>
<stop offset="0.48" stop-color="#A59C9C"/>
<stop offset="0.93" stop-color="#E9E8E4"/>
</linearGradient>
</defs>
</svg>
