<?xml version="1.0" encoding="UTF-8"?>
<svg xmlns="http://www.w3.org/2000/svg" version="1.1" viewBox="0 0 813.25 148.74">
  <defs>
    <style>
      .cls-1 {
        fill: #bb8d43;
        font-family: Montserrat-SemiBold, Montserrat;
        font-size: 13.59px;
        font-weight: 600;
        letter-spacing: -.01em;
      }

      .cls-2 {
        fill: #cdcfd1;
      }
    </style>
  </defs>
  <!-- Generator: Adobe Illustrator 28.6.0, SVG Export Plug-In . SVG Version: 1.2.0 Build 709)  -->
  <g>
    <g id="Capa_1">
      <text class="cls-1" transform="translate(384.56 103.71)"><tspan x="0" y="0">CONSTRUYENDO CONFIANZA</tspan></text>
      <path class="cls-2" d="M225.01,53.62l-18.06-27.37-18.06,27.37M188.89,53.62l-2.9,4.37-9.03,13.61h-8.28l34.4-50.95h7.85l34.4,50.95h-8.38l-9.03-13.61-2.9-4.37"/>
      <path class="cls-2" d="M197.6,53.62l-18.06-27.37-18.06,27.37M161.48,53.62l-2.9,4.37-9.03,13.61h-8.28l34.4-50.95h7.85l34.4,50.95h-8.38l-9.03-13.61-2.9-4.37"/>
      <path class="cls-2" d="M170.2,53.62l-18.06-27.37-18.06,27.37M134.08,53.62l-2.9,4.37-9.03,13.61h-8.28l34.4-50.95h7.85l34.4,50.95h-8.38l-9.03-13.61-2.9-4.37"/>
      <path class="cls-2" d="M188.89,94.92l18.06,27.37,18.06-27.37M225,94.92l2.9-4.37,9.03-13.61h8.38l-34.4,50.95h-7.85l-34.4-50.95h8.28l9.03,13.61,2.9,4.37"/>
      <path class="cls-2" d="M161.48,94.92l18.06,27.37,18.06-27.37M197.6,94.92l2.9-4.37,9.03-13.61h8.38l-34.4,50.95h-7.85l-34.4-50.95h8.28l9.03,13.61,2.9,4.37"/>
      <path class="cls-2" d="M134.08,94.92l18.06,27.37,18.06-27.37M170.2,94.92l2.9-4.37,9.03-13.61h8.38l-34.4,50.95h-7.85l-34.4-50.95h8.28l9.03,13.61,2.9,4.37"/>
      <polygon class="cls-2" points="260.09 59.53 262.56 59.53 262.56 80.75 275.64 80.75 275.64 82.89 260.09 82.89 260.09 59.53"/>
      <polygon class="cls-2" points="300.24 74.64 294.63 62.1 289.03 74.64 288.12 76.65 285.32 82.89 282.75 82.89 293.43 59.53 295.87 59.53 306.55 82.89 303.94 82.89 301.14 76.65 300.24 74.64"/>
      <path class="cls-2" d="M311.39,72.91v-13.38h2.47v13.28c0,5.54,2.6,8.08,7.14,8.08s7.18-2.54,7.18-8.08v-13.28h2.4v13.38c0,6.71-3.6,10.18-9.58,10.18s-9.61-3.47-9.61-10.18"/>
      <polygon class="cls-2" points="345.82 71.91 341.05 76.75 341.05 82.89 338.58 82.89 338.58 59.53 341.05 59.53 341.05 73.64 354.76 59.53 357.6 59.53 347.49 70.11 358.3 82.89 355.36 82.89 345.82 71.91"/>
      <polygon class="cls-2" points="381.61 80.75 381.61 82.89 365.09 82.89 365.09 59.53 381.11 59.53 381.11 61.66 367.56 61.66 367.56 69.97 379.64 69.97 379.64 72.07 367.56 72.07 367.56 80.75 381.61 80.75"/>
      <polygon class="cls-2" points="409.72 59.53 409.72 82.89 407.68 82.89 392.66 63.93 392.66 82.89 390.2 82.89 390.2 59.53 392.23 59.53 407.28 78.48 407.28 59.53 409.72 59.53"/>
      <rect class="cls-2" x="419.08" y="59.53" width="5.41" height="23.36"/>
      <polygon class="cls-2" points="454.23 59.53 454.23 82.89 449.79 82.89 438.14 68.7 438.14 82.89 432.8 82.89 432.8 59.53 437.28 59.53 448.89 73.71 448.89 59.53 454.23 59.53"/>
      <polygon class="cls-2" points="483.81 82.89 483.78 68.87 476.9 80.42 474.47 80.42 467.63 69.17 467.63 82.89 462.55 82.89 462.55 59.53 467.02 59.53 475.77 74.04 484.38 59.53 488.82 59.53 488.88 82.89 483.81 82.89"/>
      <path class="cls-2" d="M495.74,71.21c0-6.94,5.41-12.08,12.78-12.08s12.78,5.11,12.78,12.08-5.44,12.08-12.78,12.08-12.78-5.14-12.78-12.08M515.83,71.21c0-4.44-3.14-7.48-7.31-7.48s-7.31,3.04-7.31,7.48,3.14,7.48,7.31,7.48,7.31-3.04,7.31-7.48"/>
      <path class="cls-2" d="M549.58,76.51c0,4.04-3.2,6.37-9.34,6.37h-12.08v-23.36h11.41c5.84,0,8.84,2.44,8.84,6.07,0,2.34-1.2,4.14-3.1,5.14,2.6.83,4.27,2.84,4.27,5.77M533.53,63.6v5.51h5.37c2.64,0,4.07-.93,4.07-2.77s-1.44-2.74-4.07-2.74h-5.37ZM544.14,75.95c0-1.97-1.5-2.9-4.3-2.9h-6.31v5.77h6.31c2.8,0,4.3-.87,4.3-2.87"/>
      <rect class="cls-2" x="556.47" y="59.53" width="5.41" height="23.36"/>
      <polygon class="cls-2" points="570.2 59.53 575.6 59.53 575.6 78.48 587.32 78.48 587.32 82.89 570.2 82.89 570.2 59.53"/>
      <rect class="cls-2" x="593.14" y="59.53" width="5.41" height="23.36"/>
      <polygon class="cls-2" points="616.84 64.83 613.14 73.78 611.4 77.88 609.33 82.89 603.79 82.89 614.21 59.53 619.55 59.53 629.99 82.89 624.32 82.89 622.25 77.88 616.84 64.83"/>
      <polygon class="cls-2" points="686.23 64.83 682.53 73.78 680.79 77.88 678.72 82.89 673.18 82.89 683.59 59.53 688.93 59.53 699.38 82.89 693.71 82.89 691.64 77.88 686.23 64.83"/>
      <path class="cls-2" d="M650.1,82.89l-4.51-6.51h-4.97v6.51h-5.41v-23.36h10.11c6.24,0,10.15,3.24,10.15,8.48,0,3.5-1.77,6.07-4.81,7.38l5.24,7.51h-5.81ZM645.02,63.93h-4.41v8.14h4.41c3.3,0,4.97-1.53,4.97-4.07s-1.67-4.07-4.97-4.07"/>
      <rect class="cls-2" x="662.52" y="59.53" width="5.41" height="23.36"/>
    </g>
  </g>
</svg>