<?xml version="1.0" encoding="UTF-8"?>
<svg xmlns="http://www.w3.org/2000/svg" version="1.1" viewBox="0 0 431.02 391.4">
  <defs>
    <style>
      .cls-1 {
        fill: #fff;
      }
    </style>
  </defs>
  <!-- Generator: Adobe Illustrator 28.7.1, SVG Export Plug-In . SVG Version: 1.2.0 Build 142)  -->
  <g>
    <g id="Capa_1">
      <path class="cls-1" d="M2.74,257.96c0-10.17,7.81-17.45,18.32-17.45,5.83,0,10.7,2.12,13.88,5.98l-5.01,4.63c-2.27-2.6-5.11-3.95-8.48-3.95-6.31,0-10.8,4.43-10.8,10.8s4.48,10.8,10.8,10.8c3.37,0,6.22-1.35,8.48-4l5.01,4.63c-3.18,3.9-8.05,6.02-13.93,6.02-10.46,0-18.27-7.28-18.27-17.45Z"/>
      <path class="cls-1" d="M51.71,257.96c0-10.03,7.81-17.45,18.46-17.45s18.46,7.37,18.46,17.45-7.86,17.45-18.46,17.45-18.46-7.42-18.46-17.45ZM80.73,257.96c0-6.41-4.53-10.8-10.56-10.8s-10.56,4.39-10.56,10.8,4.53,10.8,10.56,10.8,10.56-4.39,10.56-10.8Z"/>
      <path class="cls-1" d="M105.51,271.51l2.65-5.88c2.84,2.07,7.09,3.52,11.13,3.52,4.63,0,6.51-1.54,6.51-3.61,0-6.31-19.62-1.98-19.62-14.51,0-5.74,4.63-10.51,14.22-10.51,4.24,0,8.58,1.01,11.71,2.99l-2.41,5.93c-3.13-1.78-6.36-2.65-9.35-2.65-4.63,0-6.41,1.74-6.41,3.86,0,6.22,19.62,1.93,19.62,14.32,0,5.64-4.68,10.46-14.32,10.46-5.35,0-10.75-1.59-13.74-3.9Z"/>
      <path class="cls-1" d="M203.18,267.6h-15.66l-2.99,7.23h-8l15.04-33.74h7.71l15.09,33.74h-8.19l-2.99-7.23ZM200.72,261.67l-5.35-12.92-5.35,12.92h10.7Z"/>
      <path class="cls-1" d="M259.43,252.66c0,7.18-5.21,11.52-13.79,11.52h-9.06v10.65h-3.57v-33.74h12.63c8.58,0,13.79,4.34,13.79,11.57ZM255.86,252.66c0-5.4-3.57-8.48-10.31-8.48h-8.97v16.87h8.97c6.75,0,10.31-3.08,10.31-8.39Z"/>
      <path class="cls-1" d="M279.97,260.42v-19.33h3.57v19.18c0,8,3.76,11.66,10.31,11.66s10.36-3.66,10.36-11.66v-19.18h3.47v19.33c0,9.69-5.21,14.7-13.83,14.7s-13.88-5.01-13.88-14.7Z"/>
      <path class="cls-1" d="M331.06,241.09h3.57v30.66h18.89v3.08h-22.46v-33.74Z"/>
      <path class="cls-1" d="M372.08,241.09h3.57v33.74h-3.57v-33.74Z"/>
      <path class="cls-1" d="M427.46,241.09v33.74h-2.94l-21.69-27.38v27.38h-3.57v-33.74h2.94l21.74,27.38v-27.38h3.52Z"/>
      <path class="cls-1" d="M132.67,300.44h1.48v18.95h11.68v1.33h-13.16v-20.29Z"/>
      <path class="cls-1" d="M161.49,311.14v9.59h-1.39v-2.7c-.96,1.74-2.81,2.81-5.45,2.81-3.39,0-5.45-1.74-5.45-4.32,0-2.29,1.45-4.23,5.65-4.23h5.19v-1.22c0-2.81-1.54-4.32-4.49-4.32-2.09,0-3.97.78-5.22,1.91l-.72-1.04c1.51-1.33,3.71-2.15,6.06-2.15,3.74,0,5.83,1.91,5.83,5.65ZM160.04,316.27v-2.84h-5.16c-3.13,0-4.23,1.3-4.23,3.04,0,1.97,1.54,3.19,4.2,3.19s4.32-1.22,5.19-3.39Z"/>
      <path class="cls-1" d="M182.48,305.6v13.5c0,5.07-2.46,7.36-7.33,7.36-2.75,0-5.39-.87-6.93-2.41l.78-1.1c1.51,1.39,3.68,2.2,6.11,2.2,4.03,0,5.91-1.85,5.91-5.88v-2.55c-1.25,2.2-3.57,3.45-6.29,3.45-4.29,0-7.54-3.04-7.54-7.36s3.25-7.33,7.54-7.33c2.78,0,5.13,1.28,6.35,3.54v-3.42h1.39ZM181.06,312.82c0-3.57-2.61-6.03-6.2-6.03s-6.17,2.46-6.17,6.03,2.61,6.06,6.17,6.06,6.2-2.49,6.2-6.06Z"/>
      <path class="cls-1" d="M188.34,313.16c0-4.49,3.22-7.68,7.56-7.68s7.56,3.19,7.56,7.68-3.22,7.68-7.56,7.68-7.56-3.19-7.56-7.68ZM201.99,313.16c0-3.8-2.61-6.38-6.09-6.38s-6.09,2.58-6.09,6.38,2.61,6.38,6.09,6.38,6.09-2.58,6.09-6.38Z"/>
      <path class="cls-1" d="M231.33,320.73l-4.84-6.78c-.64.09-1.28.15-1.97.15h-5.8v6.64h-1.48v-20.29h7.27c5.1,0,8.17,2.55,8.17,6.84,0,3.22-1.74,5.45-4.75,6.35l5.07,7.1h-1.68ZM224.52,312.79c4.35,0,6.67-2.03,6.67-5.51s-2.32-5.51-6.67-5.51h-5.8v11.01h5.8Z"/>
      <path class="cls-1" d="M249.79,311.14v9.59h-1.39v-2.7c-.96,1.74-2.81,2.81-5.45,2.81-3.39,0-5.45-1.74-5.45-4.32,0-2.29,1.45-4.23,5.65-4.23h5.19v-1.22c0-2.81-1.54-4.32-4.49-4.32-2.09,0-3.97.78-5.22,1.91l-.72-1.04c1.51-1.33,3.71-2.15,6.06-2.15,3.74,0,5.83,1.91,5.83,5.65ZM248.35,316.27v-2.84h-5.16c-3.13,0-4.23,1.3-4.23,3.04,0,1.97,1.54,3.19,4.2,3.19s4.32-1.22,5.19-3.39Z"/>
      <path class="cls-1" d="M272.2,313.16c0,4.55-3.22,7.68-7.48,7.68-2.67,0-4.93-1.3-6.14-3.56v9.07h-1.45v-20.75h1.39v3.56c1.19-2.32,3.48-3.68,6.2-3.68,4.26,0,7.48,3.16,7.48,7.68ZM270.76,313.16c0-3.8-2.64-6.38-6.11-6.38s-6.09,2.58-6.09,6.38,2.61,6.38,6.09,6.38,6.11-2.58,6.11-6.38Z"/>
      <path class="cls-1" d="M292.21,313.51h-13.01c.14,3.59,2.78,6.03,6.4,6.03,1.91,0,3.68-.7,4.84-2.12l.84.96c-1.33,1.62-3.42,2.46-5.71,2.46-4.58,0-7.8-3.19-7.8-7.68s3.1-7.68,7.25-7.68,7.22,3.13,7.22,7.62c0,.12-.03.26-.03.41ZM279.23,312.38h11.59c-.2-3.28-2.58-5.62-5.8-5.62s-5.56,2.32-5.8,5.62Z"/>
      <path class="cls-1" d="M298.1,299.22h1.45v21.5h-1.45v-21.5Z"/>
      <g>
        <path class="cls-1" d="M250.58,195.24c-13,1.96-50.11,5.38-90.07,8.79V64.94l-.42.42c-.36.35-.65.77-.86,1.22-.37.82-.82,1.97-.92,2.3-2.55,8.18-3.85,21.19-3.99,29.78l-1.21,105.99c-58.39,4.93-120.05,9.65-120.05,9.65,0,0,57.77,3.55,119.88,4.97l-.05,4.06c-16.47.1-34.02.64-61.47-.44-60.31-2.37-75.21-9.81-75.21-9.81,11.86,12.89,63.36,17.6,81.99,15.23,7.76-.99,30.62-1.15,54.65-1.01l-.16,13.79v29.84s.01.09.01.14v3.77h7.81v-33.74h-.01v-13.74c31.26.26,62.03.95,62.03.95-27.64-4.02-44.99-4.91-62.03-4.99v-3.89c59.81,1.19,121.62.21,138.28-7.94,35.42-17.32,39.24-37.56,39.24-37.56-50.6,17.04-54.62,16.35-87.45,21.3Z"/>
        <path class="cls-1" d="M165.97,64.94c7.74,11.81,90.7,121.14,90.7,121.14-17.8-66.53-90.7-121.14-90.7-121.14Z"/>
      </g>
    </g>
  </g>
</svg>