<?xml version="1.0" encoding="UTF-8"?>
<svg xmlns="http://www.w3.org/2000/svg" version="1.1" viewBox="0 0 500.9 391.4">
  <defs>
    <style>
      .cls-1 {
        fill: #fff;
      }

      .cls-2 {
        fill: none;
      }
    </style>
  </defs>
  <!-- Generator: Adobe Illustrator 28.7.1, SVG Export Plug-In . SVG Version: 1.2.0 Build 142)  -->
  <g>
    <g id="Capa_1">
      <g>
        <path class="cls-1" d="M153.6,185.1c-24.1,3.8-45.5,19.4-58.4,39.8,21.7-22.1,53-37.2,83.7-29.8l-3.1,18.7,1,.2s3.4-14.4,4.3-18.4c.6.2,1.2.3,1.9.5,12.3,3.7,24.6,8.1,35.4,15.2,2.7,1.8,5.2,3.7,7.6,5.9s4.6,4.6,6.3,7.6c0-.9-.2-1.7-.4-2.6-3.8-12.9-15.5-21.8-26.9-27.7-6.9-3.5-14.2-6.2-21.8-8,.7-2.9,1.4-6.1,2.3-9.7,17.2,2.4,33.5,8.6,49.8,14.9,50.7,20.6,96.9,36.1,151.7,19-38.5,7.9-76.5,2.2-112.8-12.1-28.6-10.4-56.2-25.8-86.7-30.2,9.9-42.5,22.2-95.3,23.4-100.6,7.3-.3,14.7,0,21.9,1.4,52.6,9.4,91.6,63.2,92.2,116.1-25.5-.4-51.1-5.5-76.2-10.6,22.4,11.8,49.1,20.4,75.7,22.5-.5,4.8-1.3,9.6-2.5,14.2l1,.3c1.5-4.7,2.5-9.5,3.3-14.4,12.5.9,24.9.3,36.8-2.1,13.4-2.9,26.4-8.4,36.8-17.3,13.7-11.7,22.7-29.8,20.5-47.9h-.4c-7.7,29.6-31.4,46.6-60.1,52.5-10.9,2.2-21.9,3-33,3,.3-9.4-.7-18.8-2.6-28-11.5-55.5-59.2-102.9-118.3-99.9h-4.2c0,0-.7,4.2-.7,4.2l-17.8,106.1c-.7,0-1.3-.2-2-.2-20-1.6-40.8,2-58,12.5-11.2,6.9-21.2,16.3-27.2,28,6-7.6,13.4-13.7,21.6-18.7,18.7-11.6,41.3-15.4,62.9-13.2.5,0,.9,0,1.4.2l-1.6,9.5c-8.8-1.8-17.8-2.3-26.8-.9Z"/>
        <g>
          <path class="cls-2" d="M323.8,305.3c-3.1,0-5.4,2.2-5.7,5.4h11.5c-.3-3.2-2.7-5.4-5.8-5.4Z"/>
          <path class="cls-2" d="M214.4,305.3c-3.5,0-6.1,2.3-6.1,5.9s2.5,6,6.1,6,6.2-2.5,6.2-6-2.7-5.9-6.2-5.9Z"/>
          <path class="cls-2" d="M335.6,254.4c0-5.2-3.5-8.2-10-8.2h-8.7v16.4h8.7c6.5,0,10-3,10-8.2Z"/>
          <path class="cls-2" d="M190.3,315.1c0,1.9,1.7,3.1,4.1,3.1s4.2-1.2,5.1-3.3h0v-2.7h-5.1c-3.2,0-4.2,1-4.2,2.9Z"/>
          <path class="cls-2" d="M304.8,305.4c-3.4,0-6,2.5-6,6.3s2.5,6.3,6,6.3,6-2.6,6-6.3-2.6-6.3-6-6.3Z"/>
          <path class="cls-2" d="M235.5,305.4c-3.4,0-6,2.5-6,6.3s2.5,6.3,6,6.3,6-2.5,6-6.3-2.6-6.3-6-6.3Z"/>
          <polygon class="cls-2" points="233.3 264.4 249 264.4 241.1 246.8 233.3 264.4"/>
          <path class="cls-2" d="M279.2,315.1c0,1.9,1.6,3.1,4.1,3.1s4.3-1.2,5.2-3.3v-2.7h-5.1c-3.2,0-4.2,1-4.2,2.9Z"/>
          <polygon class="cls-2" points="412.4 264.4 428.1 264.4 420.3 246.8 412.4 264.4"/>
          <path class="cls-2" d="M271.4,305.6c0-3.4-2.3-5.4-6.6-5.4h-5.7v10.8h5.7c4.3,0,6.6-2,6.6-5.4Z"/>
          <polygon class="cls-2" points="350.8 264.4 366.5 264.4 358.7 246.8 350.8 264.4"/>
          <path class="cls-2" d="M71.2,249.1c-5.8,0-10.2,4.3-10.2,10.5s4.4,10.5,10.2,10.5,10.2-4.3,10.2-10.5-4.4-10.5-10.2-10.5Z"/>
          <polygon class="cls-2" points="160.2 263.2 170.6 263.2 165.4 250.6 160.2 263.2"/>
          <polygon class="cls-1" points="174 298.2 171.7 298.2 171.7 319.8 186.1 319.8 186.1 317.8 174 317.8 174 298.2"/>
          <path class="cls-1" d="M195.1,303.4h0c-2.6,0-5,.9-6.6,2.3l1,1.6c1.3-1.2,3.3-1.9,5.4-1.9,3,0,4.6,1.5,4.6,4.3v1h-5.1c-4.7,0-6.3,2.1-6.3,4.6s2.3,4.7,5.9,4.7,4.6-1,5.6-2.7v2.5h2.1v-10.1c0-4.2-2.4-6.3-6.6-6.3ZM199.6,314.9h0c-.9,2.1-2.7,3.3-5.1,3.3s-4.1-1.2-4.1-3.1,1-2.9,4.2-2.9h5.1v2.7Z"/>
          <path class="cls-1" d="M220.6,306.7c-1.4-2.1-3.7-3.2-6.4-3.2-4.6,0-8.1,3.2-8.1,7.8s3.5,7.9,8.1,7.9,5-1.1,6.3-3.1v2.1c0,4-1.9,5.9-6,5.9s-4.8-.8-6.4-2.2l-1.1,1.7c1.7,1.6,4.6,2.5,7.6,2.5,5.4,0,8.1-2.5,8.1-8.1v-14.2h-2.1v2.9ZM214.4,317.2c-3.6,0-6.1-2.4-6.1-6s2.6-5.9,6.1-5.9,6.2,2.4,6.2,5.9-2.6,6-6.2,6Z"/>
          <path class="cls-1" d="M235.5,303.5c-4.7,0-8.3,3.4-8.3,8.2s3.5,8.3,8.3,8.3,8.2-3.5,8.2-8.3-3.5-8.2-8.2-8.2ZM235.5,318c-3.5,0-6-2.5-6-6.3s2.6-6.3,6-6.3,6,2.5,6,6.3-2.6,6.3-6,6.3Z"/>
          <path class="cls-1" d="M273.5,305.7h0c0-4.7-3.3-7.5-8.8-7.5h-8.1v21.6h2.3v-6.8h7.5l4.9,6.9h2.5l-5.3-7.4c3.1-1,4.9-3.4,4.9-6.8ZM264.8,311h-5.7v-10.8h5.7c4.3,0,6.6,2,6.6,5.4s-2.3,5.4-6.6,5.4Z"/>
          <path class="cls-1" d="M284,303.4h0c-2.6,0-5,.9-6.6,2.3l1,1.6c1.3-1.2,3.3-1.9,5.4-1.9,3,0,4.6,1.5,4.6,4.3v1h-5.2c-4.7,0-6.3,2.1-6.3,4.6s2.3,4.7,5.9,4.7,4.6-1,5.6-2.7v2.5h2.1v-10.1c0-4.2-2.4-6.3-6.6-6.3ZM288.5,314.9c-.9,2.1-2.7,3.3-5.2,3.3s-4.1-1.2-4.1-3.1,1-2.9,4.2-2.9h5.1v2.7Z"/>
          <path class="cls-1" d="M305,303.5c-2.7,0-4.9,1.2-6.3,3.3v-3.2h-2.1v22.2h2.2v-9c1.4,2.1,3.6,3.2,6.2,3.2,4.6,0,8.1-3.3,8.1-8.3s-3.5-8.2-8.1-8.2ZM304.8,318c-3.5,0-6-2.5-6-6.3s2.6-6.3,6-6.3,6,2.6,6,6.3-2.6,6.3-6,6.3Z"/>
          <path class="cls-1" d="M323.8,303.5c-4.6,0-7.9,3.4-7.9,8.2s3.5,8.3,8.5,8.3,4.8-.9,6.3-2.7l-1.2-1.4c-1.2,1.4-3,2.1-5,2.1-3.5,0-6.1-2.3-6.4-5.6h13.6v-.7c0-4.9-3.3-8.2-7.9-8.2ZM318.1,310.7c.3-3.2,2.6-5.4,5.7-5.4s5.5,2.2,5.8,5.4h-11.5Z"/>
          <rect class="cls-1" x="336.1" y="296.9" width="2.2" height="22.9"/>
          <path class="cls-1" d="M37.9,249.1c3.3,0,6,1.3,8.2,3.8l4.9-4.5c-3.1-3.7-7.8-5.8-13.5-5.8-10.2,0-17.8,7.1-17.8,16.9s7.6,16.9,17.7,16.9,10.4-2.1,13.5-5.8l-4.9-4.5c-2.2,2.6-5,3.9-8.2,3.9-6.1,0-10.5-4.3-10.5-10.5s4.3-10.5,10.5-10.5Z"/>
          <path class="cls-1" d="M71.2,242.6c-10.3,0-17.9,7.2-17.9,16.9s7.6,16.9,17.9,16.9,17.9-7.2,17.9-16.9-7.6-16.9-17.9-16.9ZM71.2,270c-5.8,0-10.2-4.3-10.2-10.5s4.4-10.5,10.2-10.5,10.2,4.3,10.2,10.5-4.4,10.5-10.2,10.5Z"/>
          <path class="cls-1" d="M100.4,252.5c0-2.1,1.7-3.7,6.2-3.7s6,.8,9.1,2.6l2.3-5.8c-3-1.9-7.2-2.9-11.4-2.9-9.3,0-13.8,4.6-13.8,10.2,0,12.2,19,7.9,19,14.1s-1.8,3.5-6.3,3.5-8-1.4-10.8-3.4l-2.6,5.7c2.9,2.2,8.1,3.8,13.3,3.8,9.4,0,13.9-4.7,13.9-10.1,0-12-19-7.9-19-13.9Z"/>
          <polygon class="cls-1" points="149 243.2 120.5 243.2 120.5 249.4 131 249.4 131 275.9 138.5 275.9 138.5 249.4 149 249.4 149 243.2"/>
          <path class="cls-1" d="M175.9,275.9h7.9l-14.6-32.7h-7.5l-14.6,32.7h7.8l2.9-7h15.2l2.9,7ZM160.2,263.2l5.2-12.5,5.2,12.5h-10.4Z"/>
          <path class="cls-1" d="M210,273.3c-4.3,0-8.5-1.7-10.8-4l-1.4,2.7c2.4,2.5,7.2,4.3,12.2,4.3,8.4,0,12.2-4.1,12.2-8.9,0-11.9-20.2-6.5-20.2-15.5s2.7-5.9,8.6-5.9,6.2.9,9,2.7l1.2-2.8c-2.6-1.8-6.5-2.9-10.1-2.9-8.3,0-12.1,4.2-12.1,9,0,12.1,20.2,6.6,20.2,15.6s-2.7,5.8-8.8,5.8Z"/>
          <path class="cls-1" d="M242.8,243.2h-3.4l-15,32.7h3.6l3.9-8.7h18.2l3.9,8.7h3.6l-15-32.7ZM233.3,264.4l7.9-17.6,7.9,17.6h-15.7Z"/>
          <polygon class="cls-1" points="266.7 249.4 287.7 275.9 290.6 275.9 290.6 243.2 287.2 243.2 287.2 269.8 266.1 243.2 263.2 243.2 263.2 275.9 266.7 275.9 266.7 249.4"/>
          <path class="cls-1" d="M339.1,254.4c0-7-5-11.2-13.4-11.2h-12.2v32.7h3.5v-10.4h8.8c.9,0,1.8,0,2.6-.1l7.5,10.5h3.8l-8-11.2c4.8-1.5,7.5-5.1,7.5-10.3ZM325.6,262.6h-8.7v-16.4h8.7c6.5,0,10,3,10,8.2s-3.5,8.2-10,8.2Z"/>
          <path class="cls-1" d="M357,243.2l-15,32.7h3.6l3.9-8.7h18.2l3.9,8.7h3.6l-15-32.7h-3.4ZM350.8,264.4l7.9-17.6,7.9,17.6h-15.7Z"/>
          <polygon class="cls-1" points="380.8 275.9 384.3 275.9 384.3 262 401.2 262 401.2 259.1 384.3 259.1 384.3 246.2 403.2 246.2 403.2 243.2 380.8 243.2 380.8 275.9"/>
          <path class="cls-1" d="M418.6,243.2l-15,32.7h3.6l3.9-8.7h18.2l3.9,8.7h3.6l-15-32.7h-3.4ZM412.4,264.4l7.9-17.6,7.9,17.6h-15.7Z"/>
          <polygon class="cls-1" points="445.8 260.8 462.8 260.8 462.8 257.8 445.8 257.8 445.8 246.2 464.8 246.2 464.8 243.2 442.4 243.2 442.4 275.9 465.5 275.9 465.5 272.9 445.8 272.9 445.8 260.8"/>
          <polygon class="cls-1" points="477.1 272.9 477.1 243.2 473.7 243.2 473.7 275.9 495.4 275.9 495.4 272.9 477.1 272.9"/>
        </g>
      </g>
    </g>
  </g>
</svg>