<?xml version="1.0" encoding="UTF-8"?>
<svg xmlns="http://www.w3.org/2000/svg" version="1.1" viewBox="0 0 431.02 391.4">
  <defs>
    <style>
      .cls-1 {
        fill: #fff;
      }
    </style>
  </defs>
  <!-- Generator: Adobe Illustrator 28.7.1, SVG Export Plug-In . SVG Version: 1.2.0 Build 142)  -->
  <g>
    <g id="Capa_1">
      <g>
        <path class="cls-1" d="M85.65,187.16c.87,0,1.44,0,2.01,0,27.48,0,54.96.01,82.43-.03,1.31,0,1.93.41,2.49,1.57,2.31,4.84,4.74,9.63,7.12,14.44.17.35.31.71.5,1.15H57.56c27.71-54.08,55.32-107.99,83.06-162.14,25.79,52.45,51.48,104.69,77.28,157.16,18.73-37.6,37.34-74.97,56.02-112.49.3.36.54.6.72.88,3.28,4.85,6.53,9.72,9.84,14.55.51.75.45,1.3.08,2.04-7.59,15.24-15.16,30.49-22.72,45.74-11.97,24.11-23.93,48.22-35.89,72.33-2.38,4.81-4.77,9.61-7.15,14.42-.19.39-.41.77-.73,1.37-25.91-52.65-51.74-105.13-77.66-157.8-11.94,23.32-23.78,46.43-35.77,69.84h1.71c14.52,0,29.03.02,43.55-.03,1.27,0,1.95.31,2.52,1.5,2.28,4.76,4.7,9.45,7.07,14.17.2.39.38.79.68,1.44h-1.66c-20.47,0-40.93,0-61.4-.03-1.14,0-1.71.35-2.22,1.38-2.79,5.69-5.68,11.34-8.53,17-.21.42-.4.86-.72,1.52Z"/>
        <path class="cls-1" d="M267.36,204.19c1.21-2.82,2.38-5.54,3.54-8.26,1.07-2.48,2.19-4.95,3.19-7.46.41-1.04.98-1.34,2.07-1.34,23.66.03,47.32.02,70.99.02.69,0,1.39,0,2.38,0-26.18-44.16-52.21-88.05-78.36-132.16-17.74,35.85-35.37,71.51-53.14,107.42-1.37-2.61-2.61-4.98-3.85-7.35-1.84-3.54-3.66-7.09-5.52-10.62-.4-.76-.48-1.38-.06-2.21,19.08-38.05,38.12-76.11,57.18-114.18,1.51-3.01,3.04-6.01,4.7-9.3,36.45,61.87,72.81,123.58,109.24,185.43h-112.35Z"/>
        <path class="cls-1" d="M81.79,265.71h6.97v35.97c-1.77,0-3.57.05-5.37-.04-.37-.02-.78-.52-1.07-.87-5.73-7.01-11.44-14.03-17.16-21.05-.36-.44-.72-.87-1.3-1.58v23.47h-7.02v-35.94c1.8,0,3.65-.05,5.48.04.37.02.75.56,1.05.93,5.7,6.98,11.38,13.97,17.07,20.95.36.44.73.87,1.35,1.6v-23.47Z"/>
        <path class="cls-1" d="M128.65,265.64c4.29,0,8.5-.05,12.71.02,2.34.04,4.72.06,7.01.49,5.78,1.09,9.49,4.79,10.29,9.9.99,6.3-1.16,10.53-7.15,13.89,2.67,3.84,5.34,7.66,8.18,11.73-2.63,0-5,.03-7.37-.04-.32,0-.69-.49-.93-.83-2.02-2.86-4.04-5.72-6.01-8.62-.45-.67-.95-.92-1.74-.9-2.57.04-5.14.02-7.88.02v10.31h-7.11v-35.97ZM135.81,271.94v13.5c2.44,0,4.78.02,7.12-.01.97-.01,1.96-.08,2.91-.26,2.63-.5,4.77-1.68,5.6-4.45,1.29-4.3-.96-8.2-5.42-8.71-3.32-.38-6.71-.07-10.21-.07Z"/>
        <path class="cls-1" d="M192.15,265.74v5.89h-19.18v8.76h16.98v5.93h-17.01v9.31h19.97v5.99h-26.99v-35.88h26.23Z"/>
        <path class="cls-1" d="M355.4,280.45h17.03v5.88h-17.02v9.35h19.96c0,1.85.05,3.57-.05,5.29-.01.26-.69.69-1.06.7-3.02.06-6.03.03-9.05.03-5.1,0-10.21,0-15.31,0-.48,0-.96,0-1.57,0v-35.94h26.23v5.87h-19.16v8.82Z"/>
        <path class="cls-1" d="M29.82,286.33v9.33h19.99v5.93h-26.98v-35.85h26.24v5.88h-19.25v8.81h17.06v5.9h-17.06Z"/>
        <path class="cls-1" d="M283.32,301.69c-2.46,0-4.67.04-6.88-.04-.33-.01-.77-.51-.94-.88-.94-2.05-1.87-4.12-2.7-6.22-.34-.87-.81-1.08-1.68-1.07-5.01.04-10.03.04-15.04,0-.92,0-1.43.23-1.77,1.13-.77,2.03-1.71,3.99-2.5,6.01-.33.84-.78,1.12-1.68,1.09-1.95-.07-3.9-.02-5.98-.02.1-.39.14-.69.25-.94,5.12-11.4,10.25-22.79,15.36-34.2.29-.64.62-.96,1.37-.93,1.6.06,3.2.07,4.79,0,.84-.04,1.26.27,1.6,1.03,3.84,8.57,7.71,17.14,11.57,25.7,1.36,3.03,2.73,6.05,4.22,9.34ZM263.56,273.09c-2.17,5.09-4.19,9.82-6.25,14.64h12.56c-2.1-4.87-4.13-9.57-6.31-14.64Z"/>
        <path class="cls-1" d="M381.7,292.22c2.79,2.12,5.87,3.47,9.28,3.8,2.05.2,4.15.01,6.21-.19.84-.08,1.7-.54,2.42-1.02,2.18-1.46,2.19-4.4-.05-5.75-1.27-.76-2.74-1.25-4.17-1.68-2.29-.69-4.63-1.21-6.94-1.84-.72-.2-1.43-.48-2.12-.77-3.68-1.54-6.12-4.04-6.26-8.26-.15-4.53,1.86-7.92,5.95-9.66,6.87-2.92,13.67-2.27,20.23,1.21.15.08.27.22.49.41-.72,1.78-1.45,3.57-2.08,5.13-2.64-.81-5.07-1.9-7.6-2.25-2.22-.31-4.59-.01-6.8.45-1.05.22-2.14,1.28-2.76,2.25-1.04,1.62-.41,3.63,1.45,4.49,2.03.93,4.24,1.5,6.39,2.17,2.15.67,4.38,1.14,6.48,1.94,3.89,1.48,6.36,4.17,6.37,8.57,0,4.55-2.29,7.67-6.35,9.43-4.93,2.13-10.06,2.02-15.13.64-2.27-.62-4.39-1.82-6.56-2.8-.77-.34-.93-.88-.51-1.71.74-1.46,1.35-2.98,2.06-4.57Z"/>
        <path class="cls-1" d="M208.87,265.64c2.43,0,4.65-.06,6.86.05.43.02,1.01.62,1.21,1.08,3.51,8.04,6.97,16.11,10.44,24.16.2.47.43.93.79,1.69,1.17-2.68,2.23-5.09,3.28-7.5,2.67-6.14,5.36-12.27,7.99-18.42.35-.82.76-1.13,1.67-1.1,1.9.08,3.8.02,5.91.02-.28.68-.47,1.2-.7,1.71-4.81,11.05-9.64,22.1-14.42,33.16-.4.93-.89,1.26-1.88,1.2-1.37-.08-2.76-.1-4.12,0-1.06.08-1.55-.31-1.97-1.27-3.87-8.95-7.78-17.88-11.69-26.81-1.01-2.31-2.02-4.63-3.03-6.95-.12-.27-.19-.56-.36-1.05Z"/>
        <path class="cls-1" d="M105.19,271.7h-11.71v-6h30.46v5.97h-11.61v30c-2.25,0-4.4.03-6.55-.05-.21,0-.55-.7-.56-1.07-.04-3.5-.03-7.01-.03-10.51,0-5.54,0-11.09,0-16.63v-1.71Z"/>
        <path class="cls-1" d="M324.81,295.64h18.53v5.94h-25.58v-35.85h7.05v29.91Z"/>
        <path class="cls-1" d="M287.37,265.7h6.9v29.91h18.58v6h-25.48v-35.91Z"/>
        <path class="cls-1" d="M167.91,328.13v20.37h-2.16v-25.7c1.15-.38,1.89-.17,2.56,1.02,3.4,6.02,6.9,11.98,10.46,18.13.33-.49.61-.86.83-1.25,3.24-5.6,6.51-11.19,9.7-16.83.6-1.06,1.29-1.48,2.54-1.1v25.7h-2.09v-20.48l-.31-.07c-.24.39-.5.78-.73,1.18-2.87,4.95-5.73,9.9-8.59,14.85-1.04,1.8-1.58,1.81-2.6.05-2.85-4.91-5.71-9.81-8.56-14.72-.24-.41-.5-.82-.75-1.23-.1.03-.2.05-.3.08Z"/>
        <path class="cls-1" d="M269.68,348.49c2.93,3.62,6.53,3.74,10.37.39.38.41.76.83,1.12,1.23-1.17,2.29-4.31,3.62-7.36,3.19-2.15-.31-3.95-1.34-5.48-2.8-1.19-1.13-2.41-1.75-4.11-2.02-7.29-1.15-11.8-7.25-10.98-14.5.79-6.99,6.78-11.88,14.08-11.5,6.92.36,11.94,4.97,12.71,11.68.75,6.52-3.11,12.17-9.62,14.09-.21.06-.42.14-.73.24ZM266.63,324.67c-6.36,0-11.12,4.67-11.11,10.92,0,6.25,4.76,10.95,11.09,10.96,6.31.02,11.11-4.71,11.12-10.94,0-6.25-4.75-10.94-11.1-10.94Z"/>
        <path class="cls-1" d="M244.96,343.79v-21.07h2.1v25.67c-1.22.49-1.92,0-2.63-.91-4.9-6.31-9.84-12.58-14.76-18.87-.33-.42-.67-.83-1.26-1.55v21.41h-2.33v-25.69c1.2-.39,1.99-.04,2.75.94,4.99,6.46,10.04,12.87,15.08,19.3.24.3.5.58.76.87.1-.04.2-.07.29-.11Z"/>
        <path class="cls-1" d="M196.08,348.43c.54-1.21,1.02-2.3,1.52-3.37,3.26-7.08,6.52-14.15,9.76-21.24.33-.72.63-1.24,1.61-1.22.92.01,1.3.38,1.65,1.16,3.58,7.85,7.21,15.69,10.81,23.53.16.35.28.72.42,1.09-2.22.47-2.25.46-3.15-1.5-.72-1.57-1.39-3.16-2.18-4.7-.19-.37-.76-.76-1.16-.77-4.26-.06-8.51-.06-12.77,0-.4,0-.96.41-1.15.78-.79,1.54-1.46,3.13-2.17,4.7q-.84,1.84-3.2,1.53ZM202.75,339.28h12.5c-2.08-4.57-4.1-9-6.27-13.77-2.16,4.77-4.17,9.21-6.24,13.77Z"/>
        <path class="cls-1" d="M111.02,348.49v-26.05c4.41.21,8.78.09,13.03.73,4.48.67,6.76,4,6.7,8.55-.06,4.19-2.54,7.29-6.85,8.07-2.29.41-4.67.32-7.02.42-1.14.05-2.29,0-3.61,0,0,1.51,0,2.87,0,4.23s0,2.64,0,4.04h-2.25ZM113.36,338.09c1.57,0,3.03.05,4.48-.01,1.9-.08,3.83-.04,5.68-.4,3.17-.62,4.91-2.97,4.93-6.19.03-3.23-1.66-5.72-4.85-6.22-3.34-.52-6.76-.48-10.24-.68v13.51Z"/>
        <path class="cls-1" d="M315.02,322.7h17.2v1.99c-.44.02-.91.07-1.38.07-4.13,0-8.25.03-12.38-.02-1-.01-1.3.29-1.28,1.29.06,2.7.02,5.4.02,8.27h13.42v2.11h-13.41c0,3.25-.02,6.34.05,9.43,0,.21.78.57,1.2.57,4.21.04,8.43.03,12.65.03.52,0,1.05,0,1.65,0v2.03h-17.75v-25.78Z"/>
        <path class="cls-1" d="M136.78,322.69h2.09c.03.47.07.93.07,1.4,0,4.53-.02,9.05.02,13.58,0,1.01.1,2.05.32,3.03.88,4.02,3.71,5.99,8.28,5.85,4.08-.13,6.72-2.37,7.34-6.32.17-1.05.25-2.12.25-3.18.03-4.74.01-9.48.01-14.31h2.12c.08.13.16.2.16.28-.02,5.5.08,11-.13,16.49-.15,3.73-1.8,6.87-5.46,8.29-4,1.56-8.03,1.5-11.63-1.17-2.63-1.95-3.48-4.9-3.56-7.99-.12-5.14-.03-10.29-.02-15.44,0-.12.07-.25.14-.51Z"/>
        <path class="cls-1" d="M304.36,322.7h2.27c.03.39.09.77.09,1.15,0,4.61.04,9.23,0,13.84-.03,2.98-.53,5.89-2.74,8.11-3.33,3.34-7.43,3.5-11.64,2.33-3.99-1.11-6.03-4.2-6.25-8.08-.32-5.66-.12-11.35-.14-17.02,0-.08.08-.15.16-.3h2.01c.03.53.07,1,.07,1.48,0,4.44-.01,8.87.02,13.31,0,1.01.08,2.05.29,3.04.93,4.31,3.96,6.34,8.81,5.97,4.24-.32,6.84-3.03,7-7.72.16-4.79.06-9.58.07-14.37,0-.53,0-1.06,0-1.73Z"/>
      </g>
    </g>
  </g>
</svg>