<?xml version="1.0" encoding="UTF-8"?>
<svg xmlns="http://www.w3.org/2000/svg" version="1.1" viewBox="0 0 431 391.4">
  <defs>
    <style>
      .cls-1 {
        fill: #fff;
      }
    </style>
  </defs>
  <!-- Generator: Adobe Illustrator 28.7.1, SVG Export Plug-In . SVG Version: 1.2.0 Build 142)  -->
  <g>
    <g id="Capa_1">
      <g>
        <path class="cls-1" d="M64.8,248.8c0-2.3,2-4.2,7.1-4.2s6.9,1,10.3,2.9l2.7-6.5c-3.5-2.2-8.2-3.3-12.9-3.3-10.6,0-15.7,5.3-15.7,11.6,0,13.8,21.6,9,21.6,16s-2.1,4-7.2,4-9.1-1.6-12.3-3.9l-2.9,6.5c3.3,2.5,9.2,4.3,15.1,4.3,10.6,0,15.8-5.3,15.8-11.5,0-13.7-21.6-8.9-21.6-15.8Z"/>
        <path class="cls-1" d="M104,238.2l-16.6,37.2h8.8l3.3-8h17.3l3.3,8h9l-16.6-37.2h-8.5ZM102.3,260.9l5.9-14.2,5.9,14.2h-11.8Z"/>
        <polygon class="cls-1" points="141.5 252.8 160.1 275.4 167.1 275.4 167.1 238.2 158.6 238.2 158.6 260.8 140.1 238.2 133 238.2 133 275.4 141.5 275.4 141.5 252.8"/>
        <path class="cls-1" d="M212.3,251c0-8-5.7-12.8-15.2-12.8h-13.9v37.2h3.9v-11.8h10c1.1,0,2,0,3-.2l8.5,12h4.3l-9.1-12.8c5.4-1.8,8.5-5.8,8.5-11.7ZM197,260.3h-9.9v-18.6h9.9c7.4,0,11.4,3.4,11.4,9.4s-3.9,9.3-11.4,9.3Z"/>
        <path class="cls-1" d="M232.6,238.2l-17,37.2h4.1l4.5-9.9h20.7l4.5,9.9h4.1l-17-37.2h-3.9ZM225.6,262.3l8.9-20,8.9,20h-17.9Z"/>
        <polygon class="cls-1" points="263.6 259.6 282.8 259.6 282.8 256.2 263.6 256.2 263.6 241.6 285.2 241.6 285.2 238.2 259.7 238.2 259.7 275.4 263.6 275.4 263.6 259.6"/>
        <path class="cls-1" d="M302.6,238.2l-17,37.2h4.1l4.5-9.9h20.7l4.5,9.9h4.1l-17-37.2h-3.9ZM295.6,262.3l8.9-20,8.9,20h-17.9Z"/>
        <polygon class="cls-1" points="333.6 258.2 352.8 258.2 352.8 254.9 333.6 254.9 333.6 241.6 355.2 241.6 355.2 238.2 329.7 238.2 329.7 275.4 356 275.4 356 272 333.6 272 333.6 258.2"/>
        <polygon class="cls-1" points="369.1 272 369.1 238.2 365.2 238.2 365.2 275.4 390 275.4 390 272 369.1 272"/>
        <polygon class="cls-1" points="134.4 300 132.1 300 132.1 321.6 146.5 321.6 146.5 319.6 134.4 319.6 134.4 300"/>
        <path class="cls-1" d="M155.6,305.3c-2.6,0-5,.8-6.6,2.2l1,1.6c1.3-1.2,3.3-1.9,5.4-1.9,3,0,4.6,1.5,4.6,4.3v1h-5.1c-4.7,0-6.3,2.1-6.3,4.6s2.3,4.7,5.9,4.7,4.6-1,5.6-2.7v2.5h2.1v-10.1c0-4.2-2.4-6.3-6.6-6.3ZM159.9,316.7c-.9,2.1-2.7,3.3-5.1,3.3s-4.1-1.2-4.1-3.1,1-2.9,4.2-2.9h5.1v2.7Z"/>
        <path class="cls-1" d="M181.1,308.5c-1.4-2.1-3.7-3.2-6.4-3.2-4.6,0-8.1,3.2-8.1,7.8s3.5,7.9,8.1,7.9,5-1.1,6.3-3.1v2.1c0,4-1.9,5.9-6,5.9s-4.8-.8-6.4-2.2l-1.1,1.7c1.7,1.6,4.6,2.5,7.6,2.5,5.4,0,8.1-2.5,8.1-8.1v-14.2h-2.1v3.1ZM174.9,319c-3.6,0-6.1-2.4-6.1-6s2.6-5.9,6.1-5.9,6.2,2.4,6.2,5.9-2.6,6-6.2,6Z"/>
        <path class="cls-1" d="M195.9,305.3c-4.7,0-8.3,3.4-8.3,8.2s3.5,8.3,8.3,8.3,8.2-3.5,8.2-8.3-3.5-8.2-8.2-8.2ZM195.9,319.8c-3.5,0-6-2.5-6-6.3s2.6-6.3,6-6.3,6,2.5,6,6.3-2.6,6.3-6,6.3Z"/>
        <path class="cls-1" d="M234.1,307.4c0-4.6-3.3-7.4-8.8-7.4h-8.1v21.6h2.3v-6.8h5.8c.6,0,1.2,0,1.7,0l4.9,6.9h2.5l-5.3-7.4c3.1-1,4.9-3.4,4.9-6.8ZM225.2,312.8h-5.7v-10.8h5.7c4.3,0,6.6,2,6.6,5.4s-2.3,5.4-6.6,5.4Z"/>
        <path class="cls-1" d="M244.5,305.3c-2.6,0-5,.8-6.6,2.2l1,1.6c1.3-1.2,3.3-1.9,5.4-1.9,3,0,4.6,1.5,4.6,4.3v1h-5.2c-4.7,0-6.3,2.1-6.3,4.6s2.3,4.7,5.9,4.7,4.6-1,5.6-2.7v2.5h2.1v-10.1c0-4.2-2.4-6.3-6.6-6.3ZM248.9,316.7c-.9,2.1-2.7,3.3-5.2,3.3s-4.1-1.2-4.1-3.1,1-2.9,4.2-2.9h5.1v2.7Z"/>
        <path class="cls-1" d="M265.4,305.3c-2.7,0-4.9,1.2-6.3,3.3v-3.2h-2.1v22.2h2.2v-9c1.4,2.1,3.6,3.2,6.2,3.2,4.6,0,8.1-3.3,8.1-8.3s-3.5-8.2-8.1-8.2ZM265.3,319.8c-3.5,0-6-2.5-6-6.3s2.6-6.3,6-6.3,6,2.6,6,6.3-2.6,6.3-6,6.3Z"/>
        <path class="cls-1" d="M284.3,305.3c-4.6,0-7.9,3.4-7.9,8.2s3.5,8.3,8.5,8.3,4.8-.9,6.3-2.7l-1.2-1.4c-1.2,1.4-3,2.1-5,2.1-3.5,0-6.1-2.3-6.4-5.6h13.6c0-.2,0-.5,0-.7,0-4.9-3.3-8.2-7.9-8.2ZM278.5,312.5c.3-3.2,2.6-5.4,5.7-5.4s5.5,2.2,5.8,5.4h-11.5Z"/>
        <rect class="cls-1" x="296.6" y="298.7" width="2.2" height="22.9"/>
      </g>
      <path class="cls-1" d="M380.4,131.9c-7.7,29.5-31.4,46.5-60.1,52.4-10.9,2.2-21.9,3-33,3,.3-9.4-.7-18.8-2.6-28-11.5-55.5-59.2-102.9-118.3-99.9h-4.2c0,.1-.7,4.2-.7,4.2l-17.8,106.1c-.7,0-1.3-.2-2-.2-20-1.6-40.8,2-58,12.5-11.2,6.9-21.2,16.3-27.2,28,6-7.6,13.4-13.7,21.6-18.7,18.7-11.6,41.3-15.4,62.9-13.2.5,0,.9.1,1.4.2l-1.6,9.5c-8.8-1.8-17.8-2.3-26.8-.9-24.1,3.8-45.5,19.4-58.4,39.8,21.7-22.1,53-37.2,83.7-29.8l-3.1,18.7,1,.2s3.4-14.4,4.3-18.4c.6.2,1.2.3,1.9.5,12.3,3.7,24.6,8.1,35.4,15.2,2.7,1.8,5.2,3.7,7.6,5.9,2.4,2.2,4.6,4.6,6.3,7.6,0-.9-.2-1.7-.4-2.6-3.8-12.9-15.5-21.8-26.9-27.7-6.9-3.5-14.2-6.2-21.8-8,.7-2.9,1.4-6.1,2.3-9.7,17.2,2.4,33.5,8.6,49.8,14.9,50.7,20.6,96.9,36.1,151.7,19-38.5,7.9-76.5,2.2-112.8-12.1-28.6-10.4-56.2-25.8-86.7-30.2,9.9-42.5,22.2-95.3,23.4-100.6,7.3-.3,14.7.1,21.9,1.4,52.6,9.4,91.6,63.2,92.2,116.1-25.5-.4-51.1-5.5-76.2-10.6,22.4,11.8,49.1,20.4,75.7,22.5-.5,4.8-1.3,9.6-2.5,14.2l1,.3c1.5-4.7,2.5-9.5,3.3-14.4,12.5.9,24.9.3,36.8-2.1,13.4-2.9,26.4-8.4,36.8-17.3,13.7-11.7,22.7-29.8,20.5-47.9Z"/>
    </g>
  </g>
</svg>